<svg xmlns="http://www.w3.org/2000/svg" viewBox="-0.60 -5.80 16.20 21.98" width="648">
<polygon points="6.000,-0.000 3.000,-5.196 0.000,-3.464 0.000,-0.000" fill="#8ecae6" stroke="#1f2833" stroke-width="0.09" stroke-linejoin="round"/>
<polygon points="6.000,-0.000 0.000,-0.000 0.000,3.464 3.000,5.196" fill="#8ecae6" stroke="#1f2833" stroke-width="0.09" stroke-linejoin="round"/>
<polygon points="0.000,10.392 6.000,10.392 6.000,6.928 3.000,5.196" fill="#8ecae6" stroke="#1f2833" stroke-width="0.09" stroke-linejoin="round"/>
<polygon points="6.000,-0.000 3.000,5.196 6.000,6.928 9.000,5.196" fill="#8ecae6" stroke="#1f2833" stroke-width="0.09" stroke-linejoin="round"/>
<polygon points="0.000,10.392 3.000,15.588 6.000,13.856 6.000,10.392" fill="#8ecae6" stroke="#1f2833" stroke-width="0.09" stroke-linejoin="round"/>
<polygon points="12.000,10.392 9.000,5.196 6.000,6.928 6.000,10.392" fill="#8ecae6" stroke="#1f2833" stroke-width="0.09" stroke-linejoin="round"/>
<polygon points="6.000,-0.000 9.000,5.196 12.000,3.464 12.000,-0.000" fill="#8ecae6" stroke="#1f2833" stroke-width="0.09" stroke-linejoin="round"/>
<polygon points="12.000,10.392 15.000,5.196 12.000,3.464 9.000,5.196" fill="#8ecae6" stroke="#1f2833" stroke-width="0.09" stroke-linejoin="round"/>
</svg>