<?xml version="1.0" encoding="UTF-8" standalone="no"?>
<!-- Created with Inkscape (http://www.inkscape.org/) -->
<svg xmlns:svg="http://www.w3.org/2000/svg" xmlns="http://www.w3.org/2000/svg" version="1.1" width="500" height="500" id="svg2">
  <defs id="defs4"/>
  <path d="m 44.99999,406.42857 398.99999,0 -199.49999,-349 -199.5,349 z" id="path2890" style="fill:#ffffff;stroke:#000000;stroke-width:3;stroke-linecap:butt;stroke-linejoin:round;stroke-miterlimit:4;stroke-opacity:1;stroke-dasharray:none"/>
  <text x="241.67899" y="45.936436" id="text2830" xml:space="preserve" style="font-size:30px;font-style:normal;font-variant:normal;font-weight:bold;font-stretch:normal;text-align:center;text-anchor:middle;fill:#000000;fill-opacity:1;stroke:none;font-family:Century Schoolbook L;-inkscape-font-specification:Century Schoolbook L Medium"><tspan x="241.67899" y="45.936436" id="tspan2832">Aa</tspan></text>
  <text x="22.453125" y="437.54999" id="text2834" xml:space="preserve" style="font-size:30px;font-style:normal;font-variant:normal;font-weight:bold;font-stretch:normal;text-align:center;text-anchor:middle;fill:#000000;fill-opacity:1;stroke:none;font-family:Century Schoolbook L;-inkscape-font-specification:Century Schoolbook L Medium"><tspan x="22.453125" y="437.54999" id="tspan2836">aa</tspan></text>
  <text x="473.10175" y="438" id="text2838" xml:space="preserve" style="font-size:30px;font-style:normal;font-variant:normal;font-weight:bold;font-stretch:normal;text-align:center;text-anchor:middle;fill:#000000;fill-opacity:1;stroke:none;font-family:Century Schoolbook L;-inkscape-font-specification:Century Schoolbook L Medium"><tspan x="473.10175" y="438" id="tspan2840">AA</tspan></text>
  <text x="282.6553" y="193" id="text2842" xml:space="preserve" style="font-size:30px;font-style:normal;font-variant:normal;font-weight:normal;font-stretch:normal;text-align:center;text-anchor:middle;fill:#000000;fill-opacity:1;stroke:none;font-family:Century Schoolbook L;-inkscape-font-specification:Andale Mono"><tspan x="282.6553" y="193" id="tspan2844">z</tspan></text>
  <text x="159.08386" y="251.21429" id="text2846" xml:space="preserve" style="font-size:30px;font-style:normal;font-variant:normal;font-weight:normal;font-stretch:normal;text-align:center;text-anchor:middle;fill:#000000;fill-opacity:1;stroke:none;font-family:Century Schoolbook L;-inkscape-font-specification:Andale Mono"><tspan x="159.08386" y="251.21429" id="tspan2848">x</tspan></text>
  <text x="183.19101" y="339.74109" id="text2850" xml:space="preserve" style="font-size:30px;font-style:normal;font-variant:normal;font-weight:normal;font-stretch:normal;text-align:center;text-anchor:middle;fill:#000000;fill-opacity:1;stroke:none;font-family:Century Schoolbook L;-inkscape-font-specification:Andale Mono"><tspan x="183.19101" y="339.74109" id="tspan2852">y</tspan></text>
  <text x="129.93208" y="325.54468" id="text2854" xml:space="preserve" style="font-size:20px;font-style:normal;font-variant:normal;font-weight:normal;font-stretch:normal;text-align:center;text-anchor:middle;fill:#000000;fill-opacity:1;stroke:none;font-family:Century Schoolbook L;-inkscape-font-specification:Andale Mono"><tspan x="129.93208" y="325.54468" id="tspan2856">1</tspan></text>
  <text x="229.6196" y="276.16968" id="text2858" xml:space="preserve" style="font-size:20px;font-style:normal;font-variant:normal;font-weight:normal;font-stretch:normal;text-align:center;text-anchor:middle;fill:#000000;fill-opacity:1;stroke:none;font-family:Century Schoolbook L;-inkscape-font-specification:Andale Mono"><tspan x="229.6196" y="276.16968" id="tspan2860">2</tspan></text>
  <text x="97.562622" y="430.05786" id="text2862" xml:space="preserve" style="font-size:30px;font-style:normal;font-variant:normal;font-weight:normal;font-stretch:normal;text-align:center;text-anchor:middle;fill:#000000;fill-opacity:1;stroke:none;font-family:Century Schoolbook L;-inkscape-font-specification:Andale Mono"><tspan x="97.562622" y="430.05786" id="tspan2864">p</tspan></text>
  <text x="112.91977" y="467.55786" id="text2866" xml:space="preserve" style="font-size:30px;font-style:normal;font-variant:normal;font-weight:normal;font-stretch:normal;text-align:center;text-anchor:middle;fill:#000000;fill-opacity:1;stroke:none;font-family:Century Schoolbook L;-inkscape-font-specification:Andale Mono"><tspan x="112.91977" y="467.55786" id="tspan2868">p</tspan></text>
  <text x="168.63406" y="454.70074" id="text2870" xml:space="preserve" style="font-size:30px;font-style:normal;font-variant:normal;font-weight:normal;font-stretch:normal;text-align:center;text-anchor:middle;fill:#000000;fill-opacity:1;stroke:none;font-family:Century Schoolbook L;-inkscape-font-specification:Andale Mono"><tspan x="168.63406" y="454.70074" id="tspan2872">p</tspan></text>
  <text x="214.70551" y="467.55786" id="text2874" xml:space="preserve" style="font-size:30px;font-style:normal;font-variant:normal;font-weight:normal;font-stretch:normal;text-align:center;text-anchor:middle;fill:#000000;fill-opacity:1;stroke:none;font-family:Century Schoolbook L;-inkscape-font-specification:Andale Mono"><tspan x="214.70551" y="467.55786" id="tspan2876">p</tspan></text>
  <text x="268.63406" y="430.05786" id="text2878" xml:space="preserve" style="font-size:30px;font-style:normal;font-variant:normal;font-weight:normal;font-stretch:normal;text-align:center;text-anchor:middle;fill:#000000;fill-opacity:1;stroke:none;font-family:Century Schoolbook L;-inkscape-font-specification:Andale Mono"><tspan x="268.63406" y="430.05786" id="tspan2880">q</tspan></text>
  <text x="126.7178" y="476.97327" id="text2882" xml:space="preserve" style="font-size:15px;font-style:normal;font-variant:normal;font-weight:normal;font-stretch:normal;text-align:center;text-anchor:middle;fill:#000000;fill-opacity:1;stroke:none;font-family:Century Schoolbook L;-inkscape-font-specification:Andale Mono"><tspan x="126.7178" y="476.97327" id="tspan2884">1</tspan></text>
  <text x="229.97675" y="476.88397" id="text2886" xml:space="preserve" style="font-size:15px;font-style:normal;font-variant:normal;font-weight:normal;font-stretch:normal;text-align:center;text-anchor:middle;fill:#000000;fill-opacity:1;stroke:none;font-family:Century Schoolbook L;-inkscape-font-specification:Andale Mono"><tspan x="229.97675" y="476.88397" id="tspan2888">2</tspan></text>
  <path d="m 167.5,407.76786 0,-138.57143 151.07143,-81.42857" id="path3664" style="fill:none;stroke:#000000;stroke-width:3;stroke-linecap:butt;stroke-linejoin:miter;stroke-miterlimit:4;stroke-opacity:1;stroke-dasharray:none"/>
  <path d="M 167.76786,269.01786 133.48214,251.33929" id="path3666" style="fill:none;stroke:#000000;stroke-width:3;stroke-linecap:butt;stroke-linejoin:miter;stroke-miterlimit:4;stroke-opacity:1;stroke-dasharray:none"/>
  <path d="M 114.01013,309.88847 219.38299,252.78512" id="path3668" style="fill:none;stroke:#000000;stroke-width:3.00000024;stroke-linecap:butt;stroke-linejoin:miter;stroke-miterlimit:4;stroke-opacity:1;stroke-dasharray:none"/>
  <path d="m 162.53386,434.44544 12.04638,0" id="path3670" style="fill:none;stroke:#000000;stroke-width:3;stroke-linecap:square;stroke-linejoin:miter;stroke-miterlimit:4;stroke-opacity:1;stroke-dasharray:none"/>
  <path d="m 443.99998,406.42857 c -90.2669,-153.53277 -261.86848,-252.55386 -398.99999,0" id="path3672" style="fill:none;stroke:#000000;stroke-width:3;stroke-linecap:butt;stroke-linejoin:round;stroke-miterlimit:4;stroke-opacity:1;stroke-dasharray:none"/>
  <path d="m 219.5,260.5 a 2,2 0 1 1 -4,0 2,2 0 1 1 4,0 z" id="path3676" style="fill:#000000;fill-opacity:1;stroke:none"/>
  <path d="m 219.5,268.5 a 2,2 0 1 1 -4,0 2,2 0 1 1 4,0 z" id="path3678" style="fill:#000000;fill-opacity:1;stroke:none"/>
  <path d="m 219.5,276.5 a 2,2 0 1 1 -4,0 2,2 0 1 1 4,0 z" id="path3680" style="fill:#000000;fill-opacity:1;stroke:none"/>
  <path d="m 219.5,284.5 a 2,2 0 1 1 -4,0 2,2 0 1 1 4,0 z" id="path3682" style="fill:#000000;fill-opacity:1;stroke:none"/>
  <path d="m 219.5,292.5 a 2,2 0 1 1 -4,0 2,2 0 1 1 4,0 z" id="path3684" style="fill:#000000;fill-opacity:1;stroke:none"/>
  <path d="m 219.5,300.5 a 2,2 0 1 1 -4,0 2,2 0 1 1 4,0 z" id="path3686" style="fill:#000000;fill-opacity:1;stroke:none"/>
  <path d="m 219.5,308.5 a 2,2 0 1 1 -4,0 2,2 0 1 1 4,0 z" id="path3688" style="fill:#000000;fill-opacity:1;stroke:none"/>
  <path d="m 219.5,316.5 a 2,2 0 1 1 -4,0 2,2 0 1 1 4,0 z" id="path3690" style="fill:#000000;fill-opacity:1;stroke:none"/>
  <path d="m 219.5,324.5 a 2,2 0 1 1 -4,0 2,2 0 1 1 4,0 z" id="path3692" style="fill:#000000;fill-opacity:1;stroke:none"/>
  <path d="m 219.5,332.5 a 2,2 0 1 1 -4,0 2,2 0 1 1 4,0 z" id="path3694" style="fill:#000000;fill-opacity:1;stroke:none"/>
  <path d="m 219.5,340.5 a 2,2 0 1 1 -4,0 2,2 0 1 1 4,0 z" id="path3696" style="fill:#000000;fill-opacity:1;stroke:none"/>
  <path d="m 219.5,348.5 a 2,2 0 1 1 -4,0 2,2 0 1 1 4,0 z" id="path3698" style="fill:#000000;fill-opacity:1;stroke:none"/>
  <path d="m 219.5,356.5 a 2,2 0 1 1 -4,0 2,2 0 1 1 4,0 z" id="path3700" style="fill:#000000;fill-opacity:1;stroke:none"/>
  <path d="m 219.5,364.5 a 2,2 0 1 1 -4,0 2,2 0 1 1 4,0 z" id="path3702" style="fill:#000000;fill-opacity:1;stroke:none"/>
  <path d="m 219.5,372.5 a 2,2 0 1 1 -4,0 2,2 0 1 1 4,0 z" id="path3704" style="fill:#000000;fill-opacity:1;stroke:none"/>
  <path d="m 219.5,380.5 a 2,2 0 1 1 -4,0 2,2 0 1 1 4,0 z" id="path3706" style="fill:#000000;fill-opacity:1;stroke:none"/>
  <path d="m 219.5,388.5 a 2,2 0 1 1 -4,0 2,2 0 1 1 4,0 z" id="path3708" style="fill:#000000;fill-opacity:1;stroke:none"/>
  <path d="m 219.5,396.5 a 2,2 0 1 1 -4,0 2,2 0 1 1 4,0 z" id="path3710" style="fill:#000000;fill-opacity:1;stroke:none"/>
  <path d="m 219.5,404.5 a 2,2 0 1 1 -4,0 2,2 0 1 1 4,0 z" id="path3712" style="fill:#000000;fill-opacity:1;stroke:none"/>
  <path d="m 219.5,412.5 a 2,2 0 1 1 -4,0 2,2 0 1 1 4,0 z" id="path3714" style="fill:#000000;fill-opacity:1;stroke:none"/>
  <path d="m 219.5,420.5 a 2,2 0 1 1 -4,0 2,2 0 1 1 4,0 z" id="path3716" style="fill:#000000;fill-opacity:1;stroke:none"/>
  <path d="m 219.5,428.5 a 2,2 0 1 1 -4,0 2,2 0 1 1 4,0 z" id="path3718" style="fill:#000000;fill-opacity:1;stroke:none"/>
  <path d="m 219.5,436.5 a 2,2 0 1 1 -4,0 2,2 0 1 1 4,0 z" id="path3720" style="fill:#000000;fill-opacity:1;stroke:none"/>
  <path d="m 219.5,444.5 a 2,2 0 1 1 -4,0 2,2 0 1 1 4,0 z" id="path3722" style="fill:#000000;fill-opacity:1;stroke:none"/>
  <path d="m 119.5,308.5 a 2,2 0 1 1 -4,0 2,2 0 1 1 4,0 z" id="path3736" style="fill:#000000;fill-opacity:1;stroke:none"/>
  <path d="m 119.5,316.5 a 2,2 0 1 1 -4,0 2,2 0 1 1 4,0 z" id="path3738" style="fill:#000000;fill-opacity:1;stroke:none"/>
  <path d="m 119.5,324.5 a 2,2 0 1 1 -4,0 2,2 0 1 1 4,0 z" id="path3740" style="fill:#000000;fill-opacity:1;stroke:none"/>
  <path d="m 119.5,332.5 a 2,2 0 1 1 -4,0 2,2 0 1 1 4,0 z" id="path3742" style="fill:#000000;fill-opacity:1;stroke:none"/>
  <path d="m 119.5,340.5 a 2,2 0 1 1 -4,0 2,2 0 1 1 4,0 z" id="path3744" style="fill:#000000;fill-opacity:1;stroke:none"/>
  <path d="m 119.5,348.5 a 2,2 0 1 1 -4,0 2,2 0 1 1 4,0 z" id="path3746" style="fill:#000000;fill-opacity:1;stroke:none"/>
  <path d="m 119.5,356.5 a 2,2 0 1 1 -4,0 2,2 0 1 1 4,0 z" id="path3748" style="fill:#000000;fill-opacity:1;stroke:none"/>
  <path d="m 119.5,364.5 a 2,2 0 1 1 -4,0 2,2 0 1 1 4,0 z" id="path3750" style="fill:#000000;fill-opacity:1;stroke:none"/>
  <path d="m 119.5,372.5 a 2,2 0 1 1 -4,0 2,2 0 1 1 4,0 z" id="path3752" style="fill:#000000;fill-opacity:1;stroke:none"/>
  <path d="m 119.5,380.5 a 2,2 0 1 1 -4,0 2,2 0 1 1 4,0 z" id="path3754" style="fill:#000000;fill-opacity:1;stroke:none"/>
  <path d="m 119.5,388.5 a 2,2 0 1 1 -4,0 2,2 0 1 1 4,0 z" id="path3756" style="fill:#000000;fill-opacity:1;stroke:none"/>
  <path d="m 119.5,396.5 a 2,2 0 1 1 -4,0 2,2 0 1 1 4,0 z" id="path3758" style="fill:#000000;fill-opacity:1;stroke:none"/>
  <path d="m 119.5,404.5 a 2,2 0 1 1 -4,0 2,2 0 1 1 4,0 z" id="path3760" style="fill:#000000;fill-opacity:1;stroke:none"/>
  <path d="m 119.5,412.5 a 2,2 0 1 1 -4,0 2,2 0 1 1 4,0 z" id="path3762" style="fill:#000000;fill-opacity:1;stroke:none"/>
  <path d="m 119.5,420.5 a 2,2 0 1 1 -4,0 2,2 0 1 1 4,0 z" id="path3764" style="fill:#000000;fill-opacity:1;stroke:none"/>
  <path d="m 119.5,428.5 a 2,2 0 1 1 -4,0 2,2 0 1 1 4,0 z" id="path3766" style="fill:#000000;fill-opacity:1;stroke:none"/>
  <path d="m 119.5,436.5 a 2,2 0 1 1 -4,0 2,2 0 1 1 4,0 z" id="path3768" style="fill:#000000;fill-opacity:1;stroke:none"/>
  <path d="m 119.5,444.5 a 2,2 0 1 1 -4,0 2,2 0 1 1 4,0 z" id="path3770" style="fill:#000000;fill-opacity:1;stroke:none"/>
  <path d="m 219.5,252.5 a 2,2 0 1 1 -4,0 2,2 0 1 1 4,0 z" id="path3772" style="fill:#000000;fill-opacity:1;stroke:none"/>
</svg>