<svg xmlns="http://www.w3.org/2000/svg" width="116" height="162" viewBox="0 0 116 162">
<polygon points="76.6,105.4 88.4,92.7 88.4,68.4 76.6,81.1" fill="#375576" stroke="#222" stroke-width="0.8" stroke-linejoin="round"/>
<polygon points="14.0,130.5 39.4,136.4 39.4,112.1 14.0,106.2" fill="#ba6d21" stroke="#222" stroke-width="0.8" stroke-linejoin="round"/>
<polygon points="64.8,118.0 76.6,105.4 51.2,99.4 39.4,112.1" fill="#f08c2a" stroke="#222" stroke-width="0.8" stroke-linejoin="round"/>
<polygon points="39.4,112.1 51.2,99.4 51.2,75.2 39.4,87.9" fill="#ab641e" stroke="#222" stroke-width="0.8" stroke-linejoin="round"/>
<polygon points="39.4,136.4 64.8,142.3 64.8,118.0 39.4,112.1" fill="#ba6d21" stroke="#222" stroke-width="0.8" stroke-linejoin="round"/>
<polygon points="76.6,81.1 88.4,68.4 88.4,44.2 76.6,56.9" fill="#375576" stroke="#222" stroke-width="0.8" stroke-linejoin="round"/>
<polygon points="14.0,106.2 39.4,112.1 39.4,87.9 14.0,82.0" fill="#ba6d21" stroke="#222" stroke-width="0.8" stroke-linejoin="round"/>
<polygon points="90.1,148.2 102.0,135.5 102.0,111.3 90.1,124.0" fill="#ab641e" stroke="#222" stroke-width="0.8" stroke-linejoin="round"/>
<polygon points="51.2,75.2 76.6,81.1 76.6,56.9 51.2,50.9" fill="#3c5d80" stroke="#222" stroke-width="0.8" stroke-linejoin="round"/>
<polygon points="64.8,118.0 76.6,105.4 76.6,81.1 64.8,93.8" fill="#375576" stroke="#222" stroke-width="0.8" stroke-linejoin="round"/>
<polygon points="64.8,93.8 76.6,81.1 51.2,75.2 39.4,87.9" fill="#4d78a5" stroke="#222" stroke-width="0.8" stroke-linejoin="round"/>
<polygon points="64.8,142.3 90.1,148.2 90.1,124.0 64.8,118.0" fill="#ba6d21" stroke="#222" stroke-width="0.8" stroke-linejoin="round"/>
<polygon points="39.4,63.6 51.2,50.9 25.8,45.0 14.0,57.7" fill="#f08c2a" stroke="#222" stroke-width="0.8" stroke-linejoin="round"/>
<polygon points="76.6,56.9 88.4,44.2 88.4,19.9 76.6,32.6" fill="#375576" stroke="#222" stroke-width="0.8" stroke-linejoin="round"/>
<polygon points="76.6,32.6 88.4,19.9 63.0,14.0 51.2,26.7" fill="#4d78a5" stroke="#222" stroke-width="0.8" stroke-linejoin="round"/>
<polygon points="14.0,82.0 39.4,87.9 39.4,63.6 14.0,57.7" fill="#ba6d21" stroke="#222" stroke-width="0.8" stroke-linejoin="round"/>
<polygon points="90.1,124.0 102.0,111.3 102.0,87.0 90.1,99.7" fill="#ab641e" stroke="#222" stroke-width="0.8" stroke-linejoin="round"/>
<polygon points="64.8,69.5 76.6,56.9 51.2,50.9 39.4,63.6" fill="#f08c2a" stroke="#222" stroke-width="0.8" stroke-linejoin="round"/>
<polygon points="64.8,118.0 90.1,124.0 90.1,99.7 64.8,93.8" fill="#ba6d21" stroke="#222" stroke-width="0.8" stroke-linejoin="round"/>
<polygon points="39.4,87.9 64.8,93.8 64.8,69.5 39.4,63.6" fill="#ba6d21" stroke="#222" stroke-width="0.8" stroke-linejoin="round"/>
<polygon points="52.9,130.7 64.8,118.0 64.8,93.8 52.9,106.5" fill="#375576" stroke="#222" stroke-width="0.8" stroke-linejoin="round"/>
<polygon points="90.1,99.7 102.0,87.0 102.0,62.8 90.1,75.5" fill="#ab641e" stroke="#222" stroke-width="0.8" stroke-linejoin="round"/>
<polygon points="90.1,75.5 102.0,62.8 76.6,56.9 64.8,69.5" fill="#f08c2a" stroke="#222" stroke-width="0.8" stroke-linejoin="round"/>
<polygon points="27.5,124.8 52.9,130.7 52.9,106.5 27.5,100.6" fill="#3c5d80" stroke="#222" stroke-width="0.8" stroke-linejoin="round"/>
<polygon points="64.8,69.5 76.6,56.9 76.6,32.6 64.8,45.3" fill="#375576" stroke="#222" stroke-width="0.8" stroke-linejoin="round"/>
<polygon points="64.8,45.3 76.6,32.6 51.2,26.7 39.4,39.4" fill="#4d78a5" stroke="#222" stroke-width="0.8" stroke-linejoin="round"/>
<polygon points="64.8,93.8 90.1,99.7 90.1,75.5 64.8,69.5" fill="#ba6d21" stroke="#222" stroke-width="0.8" stroke-linejoin="round"/>
<polygon points="52.9,106.5 64.8,93.8 64.8,69.5 52.9,82.2" fill="#375576" stroke="#222" stroke-width="0.8" stroke-linejoin="round"/>
<polygon points="27.5,100.6 52.9,106.5 52.9,82.2 27.5,76.3" fill="#3c5d80" stroke="#222" stroke-width="0.8" stroke-linejoin="round"/>
<polygon points="52.9,82.2 64.8,69.5 64.8,45.3 52.9,58.0" fill="#375576" stroke="#222" stroke-width="0.8" stroke-linejoin="round"/>
<polygon points="52.9,58.0 64.8,45.3 39.4,39.4 27.5,52.1" fill="#4d78a5" stroke="#222" stroke-width="0.8" stroke-linejoin="round"/>
<polygon points="27.5,76.3 52.9,82.2 52.9,58.0 27.5,52.1" fill="#3c5d80" stroke="#222" stroke-width="0.8" stroke-linejoin="round"/>
</svg>
