<svg xmlns="http://www.w3.org/2000/svg" width="114" height="134" viewBox="0 0 114 134">
<polygon points="14.0,74.6 14.0,99.3 37.7,106.3 37.7,81.6" fill="#273c53" stroke="#222" stroke-width="0.8" stroke-linejoin="round"/>
<polygon points="76.3,77.4 52.6,70.4 37.7,81.6 61.5,88.5" fill="#4d78a5" stroke="#222" stroke-width="0.8" stroke-linejoin="round"/>
<polygon points="37.7,81.6 52.6,70.4 52.6,45.7 37.7,56.8" fill="#3c5d80" stroke="#222" stroke-width="0.8" stroke-linejoin="round"/>
<polygon points="37.7,81.6 37.7,106.3 61.5,113.2 61.5,88.5" fill="#273c53" stroke="#222" stroke-width="0.8" stroke-linejoin="round"/>
<polygon points="14.0,49.9 14.0,74.6 37.7,81.6 37.7,56.8" fill="#273c53" stroke="#222" stroke-width="0.8" stroke-linejoin="round"/>
<polygon points="85.2,120.2 100.1,109.1 100.1,84.3 85.2,95.5" fill="#3c5d80" stroke="#222" stroke-width="0.8" stroke-linejoin="round"/>
<polygon points="52.6,21.0 28.8,14.0 14.0,25.1 37.7,32.1" fill="#4d78a5" stroke="#222" stroke-width="0.8" stroke-linejoin="round"/>
<polygon points="61.5,88.5 61.5,113.2 85.2,120.2 85.2,95.5" fill="#273c53" stroke="#222" stroke-width="0.8" stroke-linejoin="round"/>
<polygon points="14.0,25.1 14.0,49.9 37.7,56.8 37.7,32.1" fill="#273c53" stroke="#222" stroke-width="0.8" stroke-linejoin="round"/>
<polygon points="85.2,95.5 100.1,84.3 100.1,59.6 85.2,70.8" fill="#3c5d80" stroke="#222" stroke-width="0.8" stroke-linejoin="round"/>
<polygon points="76.3,27.9 52.6,21.0 37.7,32.1 61.5,39.1" fill="#4d78a5" stroke="#222" stroke-width="0.8" stroke-linejoin="round"/>
<polygon points="61.5,63.8 61.5,88.5 85.2,95.5 85.2,70.8" fill="#273c53" stroke="#222" stroke-width="0.8" stroke-linejoin="round"/>
<polygon points="37.7,32.1 37.7,56.8 61.5,63.8 61.5,39.1" fill="#273c53" stroke="#222" stroke-width="0.8" stroke-linejoin="round"/>
<polygon points="85.2,70.8 100.1,59.6 100.1,34.9 85.2,46.0" fill="#3c5d80" stroke="#222" stroke-width="0.8" stroke-linejoin="round"/>
<polygon points="100.1,34.9 76.3,27.9 61.5,39.1 85.2,46.0" fill="#4d78a5" stroke="#222" stroke-width="0.8" stroke-linejoin="round"/>
<polygon points="61.5,39.1 61.5,63.8 85.2,70.8 85.2,46.0" fill="#273c53" stroke="#222" stroke-width="0.8" stroke-linejoin="round"/>
</svg>
