<svg xmlns="http://www.w3.org/2000/svg" viewBox="-19.9 -22.4 47.4 47.4" width="1000">
<path d="M-24.00 -6.93 L-24.00 -8.66 L-25.50 -9.53 L-27.00 -8.66 L-27.00 -6.93 L-25.50 -6.06 Z M-21.00 -6.93 L-21.00 -8.66 L-22.50 -9.53 L-24.00 -8.66 L-24.00 -6.93 L-22.50 -6.06 Z M-18.00 -6.93 L-18.00 -8.66 L-19.50 -9.53 L-21.00 -8.66 L-21.00 -6.93 L-19.50 -6.06 Z M-31.50 -4.33 L-31.50 -6.06 L-33.00 -6.93 L-34.50 -6.06 L-34.50 -4.33 L-33.00 -3.46 Z M-25.50 -4.33 L-25.50 -6.06 L-27.00 -6.93 L-28.50 -6.06 L-28.50 -4.33 L-27.00 -3.46 Z M-36.00 -1.73 L-36.00 -3.46 L-37.50 -4.33 L-39.00 -3.46 L-39.00 -1.73 L-37.50 -0.87 Z M-33.00 -1.73 L-33.00 -3.46 L-34.50 -4.33 L-36.00 -3.46 L-36.00 -1.73 L-34.50 -0.87 Z M-30.00 -1.73 L-30.00 -3.46 L-31.50 -4.33 L-33.00 -3.46 L-33.00 -1.73 L-31.50 -0.87 Z M-27.00 -1.73 L-27.00 -3.46 L-28.50 -4.33 L-30.00 -3.46 L-30.00 -1.73 L-28.50 -0.87 Z M-34.50 0.87 L-34.50 -0.87 L-36.00 -1.73 L-37.50 -0.87 L-37.50 0.87 L-36.00 1.73 Z M-31.50 0.87 L-31.50 -0.87 L-33.00 -1.73 L-34.50 -0.87 L-34.50 0.87 L-33.00 1.73 Z M-28.50 0.87 L-28.50 -0.87 L-30.00 -1.73 L-31.50 -0.87 L-31.50 0.87 L-30.00 1.73 Z" fill="#785ace" stroke="#785ace" stroke-width="0.02"/>
<path d="M-25.50 -9.53 L-24.00 -8.66 M-27.00 -8.66 L-25.50 -9.53 M-27.00 -8.66 L-27.00 -6.93 M-25.50 -6.06 L-24.00 -6.93 M-22.50 -9.53 L-21.00 -8.66 M-24.00 -8.66 L-22.50 -9.53 M-24.00 -6.93 L-22.50 -6.06 M-22.50 -6.06 L-21.00 -6.93 M-18.00 -8.66 L-18.00 -6.93 M-19.50 -9.53 L-18.00 -8.66 M-21.00 -8.66 L-19.50 -9.53 M-21.00 -6.93 L-19.50 -6.06 M-19.50 -6.06 L-18.00 -6.93 M-31.50 -6.06 L-31.50 -4.33 M-33.00 -6.93 L-31.50 -6.06 M-34.50 -6.06 L-33.00 -6.93 M-34.50 -6.06 L-34.50 -4.33 M-25.50 -6.06 L-25.50 -4.33 M-28.50 -6.06 L-27.00 -6.93 M-28.50 -6.06 L-28.50 -4.33 M-27.00 -3.46 L-25.50 -4.33 M-37.50 -4.33 L-36.00 -3.46 M-39.00 -3.46 L-37.50 -4.33 M-39.00 -3.46 L-39.00 -1.73 M-39.00 -1.73 L-37.50 -0.87 M-36.00 -3.46 L-34.50 -4.33 M-31.50 -4.33 L-30.00 -3.46 M-27.00 -3.46 L-27.00 -1.73 M-30.00 -3.46 L-28.50 -4.33 M-28.50 -0.87 L-27.00 -1.73 M-37.50 -0.87 L-37.50 0.87 M-37.50 0.87 L-36.00 1.73 M-36.00 1.73 L-34.50 0.87 M-34.50 0.87 L-33.00 1.73 M-33.00 1.73 L-31.50 0.87 M-28.50 -0.87 L-28.50 0.87 M-31.50 0.87 L-30.00 1.73 M-30.00 1.73 L-28.50 0.87" stroke="#1f2833" stroke-width="0.09" stroke-linecap="round" fill="none"/>
<path d="M-12.00 8.66 L-12.00 6.93 L-13.50 6.06 L-15.00 6.93 L-15.00 8.66 L-13.50 9.53 Z M-10.50 11.26 L-10.50 9.53 L-12.00 8.66 L-13.50 9.53 L-13.50 11.26 L-12.00 12.12 Z M-9.00 13.86 L-9.00 12.12 L-10.50 11.26 L-12.00 12.12 L-12.00 13.86 L-10.50 14.72 Z M-18.00 3.46 L-18.00 1.73 L-19.50 0.87 L-21.00 1.73 L-21.00 3.46 L-19.50 4.33 Z M-15.00 8.66 L-15.00 6.93 L-16.50 6.06 L-18.00 6.93 L-18.00 8.66 L-16.50 9.53 Z M-22.50 0.87 L-22.50 -0.87 L-24.00 -1.73 L-25.50 -0.87 L-25.50 0.87 L-24.00 1.73 Z M-21.00 3.46 L-21.00 1.73 L-22.50 0.87 L-24.00 1.73 L-24.00 3.46 L-22.50 4.33 Z M-19.50 6.06 L-19.50 4.33 L-21.00 3.46 L-22.50 4.33 L-22.50 6.06 L-21.00 6.93 Z M-18.00 8.66 L-18.00 6.93 L-19.50 6.06 L-21.00 6.93 L-21.00 8.66 L-19.50 9.53 Z M-24.00 3.46 L-24.00 1.73 L-25.50 0.87 L-27.00 1.73 L-27.00 3.46 L-25.50 4.33 Z M-22.50 6.06 L-22.50 4.33 L-24.00 3.46 L-25.50 4.33 L-25.50 6.06 L-24.00 6.93 Z M-21.00 8.66 L-21.00 6.93 L-22.50 6.06 L-24.00 6.93 L-24.00 8.66 L-22.50 9.53 Z" fill="#00c398" stroke="#00c398" stroke-width="0.02"/>
<path d="M-12.00 6.93 L-12.00 8.66 M-13.50 6.06 L-12.00 6.93 M-15.00 6.93 L-13.50 6.06 M-15.00 8.66 L-13.50 9.53 M-10.50 9.53 L-10.50 11.26 M-12.00 8.66 L-10.50 9.53 M-13.50 9.53 L-13.50 11.26 M-13.50 11.26 L-12.00 12.12 M-9.00 12.12 L-9.00 13.86 M-10.50 11.26 L-9.00 12.12 M-12.00 12.12 L-12.00 13.86 M-12.00 13.86 L-10.50 14.72 M-10.50 14.72 L-9.00 13.86 M-18.00 1.73 L-18.00 3.46 M-19.50 0.87 L-18.00 1.73 M-21.00 1.73 L-19.50 0.87 M-19.50 4.33 L-18.00 3.46 M-16.50 6.06 L-15.00 6.93 M-18.00 6.93 L-16.50 6.06 M-18.00 8.66 L-16.50 9.53 M-16.50 9.53 L-15.00 8.66 M-22.50 -0.87 L-22.50 0.87 M-24.00 -1.73 L-22.50 -0.87 M-25.50 -0.87 L-24.00 -1.73 M-25.50 -0.87 L-25.50 0.87 M-22.50 0.87 L-21.00 1.73 M-19.50 4.33 L-19.50 6.06 M-19.50 6.06 L-18.00 6.93 M-21.00 8.66 L-19.50 9.53 M-19.50 9.53 L-18.00 8.66 M-27.00 1.73 L-25.50 0.87 M-27.00 1.73 L-27.00 3.46 M-27.00 3.46 L-25.50 4.33 M-25.50 4.33 L-25.50 6.06 M-25.50 6.06 L-24.00 6.93 M-24.00 6.93 L-24.00 8.66 M-24.00 8.66 L-22.50 9.53 M-22.50 9.53 L-21.00 8.66" stroke="#1f2833" stroke-width="0.09" stroke-linecap="round" fill="none"/>
<path d="M-6.00 13.86 L-6.00 12.12 L-7.50 11.26 L-9.00 12.12 L-9.00 13.86 L-7.50 14.72 Z M-7.50 16.45 L-7.50 14.72 L-9.00 13.86 L-10.50 14.72 L-10.50 16.45 L-9.00 17.32 Z M-9.00 19.05 L-9.00 17.32 L-10.50 16.45 L-12.00 17.32 L-12.00 19.05 L-10.50 19.92 Z M-4.50 6.06 L-4.50 4.33 L-6.00 3.46 L-7.50 4.33 L-7.50 6.06 L-6.00 6.93 Z M-7.50 11.26 L-7.50 9.53 L-9.00 8.66 L-10.50 9.53 L-10.50 11.26 L-9.00 12.12 Z M-4.50 0.87 L-4.50 -0.87 L-6.00 -1.73 L-7.50 -0.87 L-7.50 0.87 L-6.00 1.73 Z M-6.00 3.46 L-6.00 1.73 L-7.50 0.87 L-9.00 1.73 L-9.00 3.46 L-7.50 4.33 Z M-7.50 6.06 L-7.50 4.33 L-9.00 3.46 L-10.50 4.33 L-10.50 6.06 L-9.00 6.93 Z M-9.00 8.66 L-9.00 6.93 L-10.50 6.06 L-12.00 6.93 L-12.00 8.66 L-10.50 9.53 Z M-7.50 0.87 L-7.50 -0.87 L-9.00 -1.73 L-10.50 -0.87 L-10.50 0.87 L-9.00 1.73 Z M-9.00 3.46 L-9.00 1.73 L-10.50 0.87 L-12.00 1.73 L-12.00 3.46 L-10.50 4.33 Z M-10.50 6.06 L-10.50 4.33 L-12.00 3.46 L-13.50 4.33 L-13.50 6.06 L-12.00 6.93 Z" fill="#007dad" stroke="#007dad" stroke-width="0.02"/>
<path d="M-6.00 12.12 L-6.00 13.86 M-7.50 11.26 L-6.00 12.12 M-9.00 12.12 L-9.00 13.86 M-7.50 14.72 L-6.00 13.86 M-7.50 14.72 L-7.50 16.45 M-10.50 14.72 L-9.00 13.86 M-10.50 14.72 L-10.50 16.45 M-9.00 17.32 L-7.50 16.45 M-9.00 17.32 L-9.00 19.05 M-12.00 17.32 L-10.50 16.45 M-12.00 17.32 L-12.00 19.05 M-12.00 19.05 L-10.50 19.92 M-10.50 19.92 L-9.00 19.05 M-4.50 4.33 L-4.50 6.06 M-6.00 3.46 L-4.50 4.33 M-7.50 6.06 L-6.00 6.93 M-6.00 6.93 L-4.50 6.06 M-7.50 9.53 L-7.50 11.26 M-9.00 8.66 L-7.50 9.53 M-10.50 9.53 L-10.50 11.26 M-10.50 11.26 L-9.00 12.12 M-4.50 -0.87 L-4.50 0.87 M-6.00 -1.73 L-4.50 -0.87 M-7.50 -0.87 L-6.00 -1.73 M-6.00 1.73 L-4.50 0.87 M-6.00 1.73 L-6.00 3.46 M-9.00 6.93 L-7.50 6.06 M-9.00 6.93 L-9.00 8.66 M-12.00 6.93 L-12.00 8.66 M-12.00 8.66 L-10.50 9.53 M-9.00 -1.73 L-7.50 -0.87 M-10.50 -0.87 L-9.00 -1.73 M-10.50 -0.87 L-10.50 0.87 M-12.00 1.73 L-10.50 0.87 M-12.00 1.73 L-12.00 3.46 M-13.50 4.33 L-12.00 3.46 M-13.50 4.33 L-13.50 6.06 M-13.50 6.06 L-12.00 6.93" stroke="#1f2833" stroke-width="0.09" stroke-linecap="round" fill="none"/>
<path d="M-27.00 3.46 L-27.00 1.73 L-28.50 0.87 L-30.00 1.73 L-30.00 3.46 L-28.50 4.33 Z M-30.00 3.46 L-30.00 1.73 L-31.50 0.87 L-33.00 1.73 L-33.00 3.46 L-31.50 4.33 Z M-33.00 3.46 L-33.00 1.73 L-34.50 0.87 L-36.00 1.73 L-36.00 3.46 L-34.50 4.33 Z M-19.50 0.87 L-19.50 -0.87 L-21.00 -1.73 L-22.50 -0.87 L-22.50 0.87 L-21.00 1.73 Z M-25.50 0.87 L-25.50 -0.87 L-27.00 -1.73 L-28.50 -0.87 L-28.50 0.87 L-27.00 1.73 Z M-15.00 -1.73 L-15.00 -3.46 L-16.50 -4.33 L-18.00 -3.46 L-18.00 -1.73 L-16.50 -0.87 Z M-18.00 -1.73 L-18.00 -3.46 L-19.50 -4.33 L-21.00 -3.46 L-21.00 -1.73 L-19.50 -0.87 Z M-21.00 -1.73 L-21.00 -3.46 L-22.50 -4.33 L-24.00 -3.46 L-24.00 -1.73 L-22.50 -0.87 Z M-24.00 -1.73 L-24.00 -3.46 L-25.50 -4.33 L-27.00 -3.46 L-27.00 -1.73 L-25.50 -0.87 Z M-16.50 -4.33 L-16.50 -6.06 L-18.00 -6.93 L-19.50 -6.06 L-19.50 -4.33 L-18.00 -3.46 Z M-19.50 -4.33 L-19.50 -6.06 L-21.00 -6.93 L-22.50 -6.06 L-22.50 -4.33 L-21.00 -3.46 Z M-22.50 -4.33 L-22.50 -6.06 L-24.00 -6.93 L-25.50 -6.06 L-25.50 -4.33 L-24.00 -3.46 Z" fill="#20aaff" stroke="#20aaff" stroke-width="0.02"/>
<path d="M-27.00 1.73 L-27.00 3.46 M-30.00 1.73 L-28.50 0.87 M-30.00 3.46 L-28.50 4.33 M-28.50 4.33 L-27.00 3.46 M-31.50 0.87 L-30.00 1.73 M-33.00 1.73 L-31.50 0.87 M-33.00 3.46 L-31.50 4.33 M-31.50 4.33 L-30.00 3.46 M-34.50 0.87 L-33.00 1.73 M-36.00 1.73 L-34.50 0.87 M-36.00 1.73 L-36.00 3.46 M-36.00 3.46 L-34.50 4.33 M-34.50 4.33 L-33.00 3.46 M-19.50 -0.87 L-19.50 0.87 M-22.50 -0.87 L-22.50 0.87 M-22.50 0.87 L-21.00 1.73 M-21.00 1.73 L-19.50 0.87 M-25.50 -0.87 L-25.50 0.87 M-28.50 -0.87 L-27.00 -1.73 M-28.50 -0.87 L-28.50 0.87 M-27.00 1.73 L-25.50 0.87 M-15.00 -3.46 L-15.00 -1.73 M-16.50 -4.33 L-15.00 -3.46 M-18.00 -1.73 L-16.50 -0.87 M-16.50 -0.87 L-15.00 -1.73 M-19.50 -0.87 L-18.00 -1.73 M-24.00 -1.73 L-22.50 -0.87 M-27.00 -3.46 L-25.50 -4.33 M-27.00 -3.46 L-27.00 -1.73 M-25.50 -0.87 L-24.00 -1.73 M-16.50 -6.06 L-16.50 -4.33 M-18.00 -6.93 L-16.50 -6.06 M-19.50 -6.06 L-18.00 -6.93 M-21.00 -6.93 L-19.50 -6.06 M-22.50 -6.06 L-21.00 -6.93 M-24.00 -6.93 L-22.50 -6.06 M-25.50 -6.06 L-24.00 -6.93 M-25.50 -6.06 L-25.50 -4.33" stroke="#1f2833" stroke-width="0.09" stroke-linecap="round" fill="none"/>
<path d="M-19.50 11.26 L-19.50 9.53 L-21.00 8.66 L-22.50 9.53 L-22.50 11.26 L-21.00 12.12 Z M-16.50 11.26 L-16.50 9.53 L-18.00 8.66 L-19.50 9.53 L-19.50 11.26 L-18.00 12.12 Z M-13.50 11.26 L-13.50 9.53 L-15.00 8.66 L-16.50 9.53 L-16.50 11.26 L-15.00 12.12 Z M-27.00 13.86 L-27.00 12.12 L-28.50 11.26 L-30.00 12.12 L-30.00 13.86 L-28.50 14.72 Z M-21.00 13.86 L-21.00 12.12 L-22.50 11.26 L-24.00 12.12 L-24.00 13.86 L-22.50 14.72 Z M-31.50 16.45 L-31.50 14.72 L-33.00 13.86 L-34.50 14.72 L-34.50 16.45 L-33.00 17.32 Z M-28.50 16.45 L-28.50 14.72 L-30.00 13.86 L-31.50 14.72 L-31.50 16.45 L-30.00 17.32 Z M-25.50 16.45 L-25.50 14.72 L-27.00 13.86 L-28.50 14.72 L-28.50 16.45 L-27.00 17.32 Z M-22.50 16.45 L-22.50 14.72 L-24.00 13.86 L-25.50 14.72 L-25.50 16.45 L-24.00 17.32 Z M-30.00 19.05 L-30.00 17.32 L-31.50 16.45 L-33.00 17.32 L-33.00 19.05 L-31.50 19.92 Z M-27.00 19.05 L-27.00 17.32 L-28.50 16.45 L-30.00 17.32 L-30.00 19.05 L-28.50 19.92 Z M-24.00 19.05 L-24.00 17.32 L-25.50 16.45 L-27.00 17.32 L-27.00 19.05 L-25.50 19.92 Z" fill="#20aaff" stroke="#20aaff" stroke-width="0.02"/>
<path d="M-21.00 8.66 L-19.50 9.53 M-22.50 9.53 L-21.00 8.66 M-22.50 9.53 L-22.50 11.26 M-21.00 12.12 L-19.50 11.26 M-18.00 8.66 L-16.50 9.53 M-19.50 9.53 L-18.00 8.66 M-19.50 11.26 L-18.00 12.12 M-18.00 12.12 L-16.50 11.26 M-13.50 9.53 L-13.50 11.26 M-15.00 8.66 L-13.50 9.53 M-16.50 9.53 L-15.00 8.66 M-16.50 11.26 L-15.00 12.12 M-15.00 12.12 L-13.50 11.26 M-27.00 12.12 L-27.00 13.86 M-28.50 11.26 L-27.00 12.12 M-30.00 12.12 L-28.50 11.26 M-30.00 12.12 L-30.00 13.86 M-21.00 12.12 L-21.00 13.86 M-24.00 12.12 L-22.50 11.26 M-24.00 12.12 L-24.00 13.86 M-22.50 14.72 L-21.00 13.86 M-33.00 13.86 L-31.50 14.72 M-34.50 14.72 L-33.00 13.86 M-34.50 14.72 L-34.50 16.45 M-34.50 16.45 L-33.00 17.32 M-31.50 14.72 L-30.00 13.86 M-27.00 13.86 L-25.50 14.72 M-22.50 14.72 L-22.50 16.45 M-25.50 14.72 L-24.00 13.86 M-24.00 17.32 L-22.50 16.45 M-33.00 17.32 L-33.00 19.05 M-33.00 19.05 L-31.50 19.92 M-31.50 19.92 L-30.00 19.05 M-30.00 19.05 L-28.50 19.92 M-28.50 19.92 L-27.00 19.05 M-24.00 17.32 L-24.00 19.05 M-27.00 19.05 L-25.50 19.92 M-25.50 19.92 L-24.00 19.05" stroke="#1f2833" stroke-width="0.09" stroke-linecap="round" fill="none"/>
<path d="M-22.50 21.65 L-22.50 19.92 L-24.00 19.05 L-25.50 19.92 L-25.50 21.65 L-24.00 22.52 Z M-25.50 21.65 L-25.50 19.92 L-27.00 19.05 L-28.50 19.92 L-28.50 21.65 L-27.00 22.52 Z M-28.50 21.65 L-28.50 19.92 L-30.00 19.05 L-31.50 19.92 L-31.50 21.65 L-30.00 22.52 Z M-15.00 19.05 L-15.00 17.32 L-16.50 16.45 L-18.00 17.32 L-18.00 19.05 L-16.50 19.92 Z M-21.00 19.05 L-21.00 17.32 L-22.50 16.45 L-24.00 17.32 L-24.00 19.05 L-22.50 19.92 Z M-10.50 16.45 L-10.50 14.72 L-12.00 13.86 L-13.50 14.72 L-13.50 16.45 L-12.00 17.32 Z M-13.50 16.45 L-13.50 14.72 L-15.00 13.86 L-16.50 14.72 L-16.50 16.45 L-15.00 17.32 Z M-16.50 16.45 L-16.50 14.72 L-18.00 13.86 L-19.50 14.72 L-19.50 16.45 L-18.00 17.32 Z M-19.50 16.45 L-19.50 14.72 L-21.00 13.86 L-22.50 14.72 L-22.50 16.45 L-21.00 17.32 Z M-12.00 13.86 L-12.00 12.12 L-13.50 11.26 L-15.00 12.12 L-15.00 13.86 L-13.50 14.72 Z M-15.00 13.86 L-15.00 12.12 L-16.50 11.26 L-18.00 12.12 L-18.00 13.86 L-16.50 14.72 Z M-18.00 13.86 L-18.00 12.12 L-19.50 11.26 L-21.00 12.12 L-21.00 13.86 L-19.50 14.72 Z" fill="#785ace" stroke="#785ace" stroke-width="0.02"/>
<path d="M-22.50 19.92 L-22.50 21.65 M-25.50 19.92 L-24.00 19.05 M-25.50 21.65 L-24.00 22.52 M-24.00 22.52 L-22.50 21.65 M-27.00 19.05 L-25.50 19.92 M-28.50 19.92 L-27.00 19.05 M-28.50 21.65 L-27.00 22.52 M-27.00 22.52 L-25.50 21.65 M-30.00 19.05 L-28.50 19.92 M-31.50 19.92 L-30.00 19.05 M-31.50 19.92 L-31.50 21.65 M-31.50 21.65 L-30.00 22.52 M-30.00 22.52 L-28.50 21.65 M-15.00 17.32 L-15.00 19.05 M-18.00 17.32 L-18.00 19.05 M-18.00 19.05 L-16.50 19.92 M-16.50 19.92 L-15.00 19.05 M-21.00 17.32 L-21.00 19.05 M-24.00 17.32 L-22.50 16.45 M-24.00 17.32 L-24.00 19.05 M-22.50 19.92 L-21.00 19.05 M-10.50 14.72 L-10.50 16.45 M-12.00 13.86 L-10.50 14.72 M-13.50 16.45 L-12.00 17.32 M-12.00 17.32 L-10.50 16.45 M-15.00 17.32 L-13.50 16.45 M-19.50 16.45 L-18.00 17.32 M-22.50 14.72 L-21.00 13.86 M-22.50 14.72 L-22.50 16.45 M-21.00 17.32 L-19.50 16.45 M-12.00 12.12 L-12.00 13.86 M-13.50 11.26 L-12.00 12.12 M-15.00 12.12 L-13.50 11.26 M-16.50 11.26 L-15.00 12.12 M-18.00 12.12 L-16.50 11.26 M-19.50 11.26 L-18.00 12.12 M-21.00 12.12 L-19.50 11.26 M-21.00 12.12 L-21.00 13.86" stroke="#1f2833" stroke-width="0.09" stroke-linecap="round" fill="none"/>
<path d="M-4.50 16.45 L-4.50 14.72 L-6.00 13.86 L-7.50 14.72 L-7.50 16.45 L-6.00 17.32 Z M-1.50 16.45 L-1.50 14.72 L-3.00 13.86 L-4.50 14.72 L-4.50 16.45 L-3.00 17.32 Z M1.50 16.45 L1.50 14.72 L0.00 13.86 L-1.50 14.72 L-1.50 16.45 L0.00 17.32 Z M-12.00 19.05 L-12.00 17.32 L-13.50 16.45 L-15.00 17.32 L-15.00 19.05 L-13.50 19.92 Z M-6.00 19.05 L-6.00 17.32 L-7.50 16.45 L-9.00 17.32 L-9.00 19.05 L-7.50 19.92 Z M-16.50 21.65 L-16.50 19.92 L-18.00 19.05 L-19.50 19.92 L-19.50 21.65 L-18.00 22.52 Z M-13.50 21.65 L-13.50 19.92 L-15.00 19.05 L-16.50 19.92 L-16.50 21.65 L-15.00 22.52 Z M-10.50 21.65 L-10.50 19.92 L-12.00 19.05 L-13.50 19.92 L-13.50 21.65 L-12.00 22.52 Z M-7.50 21.65 L-7.50 19.92 L-9.00 19.05 L-10.50 19.92 L-10.50 21.65 L-9.00 22.52 Z M-15.00 24.25 L-15.00 22.52 L-16.50 21.65 L-18.00 22.52 L-18.00 24.25 L-16.50 25.11 Z M-12.00 24.25 L-12.00 22.52 L-13.50 21.65 L-15.00 22.52 L-15.00 24.25 L-13.50 25.11 Z M-9.00 24.25 L-9.00 22.52 L-10.50 21.65 L-12.00 22.52 L-12.00 24.25 L-10.50 25.11 Z" fill="#785ace" stroke="#785ace" stroke-width="0.02"/>
<path d="M-6.00 13.86 L-4.50 14.72 M-7.50 14.72 L-6.00 13.86 M-7.50 14.72 L-7.50 16.45 M-6.00 17.32 L-4.50 16.45 M-3.00 13.86 L-1.50 14.72 M-4.50 14.72 L-3.00 13.86 M-4.50 16.45 L-3.00 17.32 M-3.00 17.32 L-1.50 16.45 M1.50 14.72 L1.50 16.45 M0.00 13.86 L1.50 14.72 M-1.50 14.72 L0.00 13.86 M-1.50 16.45 L0.00 17.32 M0.00 17.32 L1.50 16.45 M-12.00 17.32 L-12.00 19.05 M-13.50 16.45 L-12.00 17.32 M-15.00 17.32 L-13.50 16.45 M-15.00 17.32 L-15.00 19.05 M-6.00 17.32 L-6.00 19.05 M-9.00 17.32 L-7.50 16.45 M-9.00 17.32 L-9.00 19.05 M-7.50 19.92 L-6.00 19.05 M-18.00 19.05 L-16.50 19.92 M-19.50 19.92 L-18.00 19.05 M-19.50 19.92 L-19.50 21.65 M-19.50 21.65 L-18.00 22.52 M-16.50 19.92 L-15.00 19.05 M-12.00 19.05 L-10.50 19.92 M-7.50 19.92 L-7.50 21.65 M-10.50 19.92 L-9.00 19.05 M-9.00 22.52 L-7.50 21.65 M-18.00 22.52 L-18.00 24.25 M-18.00 24.25 L-16.50 25.11 M-16.50 25.11 L-15.00 24.25 M-15.00 24.25 L-13.50 25.11 M-13.50 25.11 L-12.00 24.25 M-9.00 22.52 L-9.00 24.25 M-12.00 24.25 L-10.50 25.11 M-10.50 25.11 L-9.00 24.25" stroke="#1f2833" stroke-width="0.09" stroke-linecap="round" fill="none"/>
<path d="M7.50 32.04 L7.50 30.31 L6.00 29.44 L4.50 30.31 L4.50 32.04 L6.00 32.91 Z M9.00 34.64 L9.00 32.91 L7.50 32.04 L6.00 32.91 L6.00 34.64 L7.50 35.51 Z M10.50 37.24 L10.50 35.51 L9.00 34.64 L7.50 35.51 L7.50 37.24 L9.00 38.11 Z M1.50 26.85 L1.50 25.11 L0.00 24.25 L-1.50 25.11 L-1.50 26.85 L0.00 27.71 Z M4.50 32.04 L4.50 30.31 L3.00 29.44 L1.50 30.31 L1.50 32.04 L3.00 32.91 Z M-3.00 24.25 L-3.00 22.52 L-4.50 21.65 L-6.00 22.52 L-6.00 24.25 L-4.50 25.11 Z M-1.50 26.85 L-1.50 25.11 L-3.00 24.25 L-4.50 25.11 L-4.50 26.85 L-3.00 27.71 Z M0.00 29.44 L0.00 27.71 L-1.50 26.85 L-3.00 27.71 L-3.00 29.44 L-1.50 30.31 Z M1.50 32.04 L1.50 30.31 L0.00 29.44 L-1.50 30.31 L-1.50 32.04 L0.00 32.91 Z M-4.50 26.85 L-4.50 25.11 L-6.00 24.25 L-7.50 25.11 L-7.50 26.85 L-6.00 27.71 Z M-3.00 29.44 L-3.00 27.71 L-4.50 26.85 L-6.00 27.71 L-6.00 29.44 L-4.50 30.31 Z M-1.50 32.04 L-1.50 30.31 L-3.00 29.44 L-4.50 30.31 L-4.50 32.04 L-3.00 32.91 Z" fill="#00c398" stroke="#00c398" stroke-width="0.02"/>
<path d="M7.50 30.31 L7.50 32.04 M6.00 29.44 L7.50 30.31 M4.50 30.31 L6.00 29.44 M4.50 32.04 L6.00 32.91 M9.00 32.91 L9.00 34.64 M7.50 32.04 L9.00 32.91 M6.00 32.91 L6.00 34.64 M6.00 34.64 L7.50 35.51 M10.50 35.51 L10.50 37.24 M9.00 34.64 L10.50 35.51 M7.50 35.51 L7.50 37.24 M7.50 37.24 L9.00 38.11 M9.00 38.11 L10.50 37.24 M1.50 25.11 L1.50 26.85 M0.00 24.25 L1.50 25.11 M-1.50 25.11 L0.00 24.25 M0.00 27.71 L1.50 26.85 M3.00 29.44 L4.50 30.31 M1.50 30.31 L3.00 29.44 M1.50 32.04 L3.00 32.91 M3.00 32.91 L4.50 32.04 M-3.00 22.52 L-3.00 24.25 M-4.50 21.65 L-3.00 22.52 M-6.00 22.52 L-4.50 21.65 M-6.00 22.52 L-6.00 24.25 M-3.00 24.25 L-1.50 25.11 M0.00 27.71 L0.00 29.44 M0.00 29.44 L1.50 30.31 M-1.50 32.04 L0.00 32.91 M0.00 32.91 L1.50 32.04 M-7.50 25.11 L-6.00 24.25 M-7.50 25.11 L-7.50 26.85 M-7.50 26.85 L-6.00 27.71 M-6.00 27.71 L-6.00 29.44 M-6.00 29.44 L-4.50 30.31 M-4.50 30.31 L-4.50 32.04 M-4.50 32.04 L-3.00 32.91 M-3.00 32.91 L-1.50 32.04" stroke="#1f2833" stroke-width="0.09" stroke-linecap="round" fill="none"/>
<path d="M-15.00 29.44 L-15.00 27.71 L-16.50 26.85 L-18.00 27.71 L-18.00 29.44 L-16.50 30.31 Z M-16.50 26.85 L-16.50 25.11 L-18.00 24.25 L-19.50 25.11 L-19.50 26.85 L-18.00 27.71 Z M-18.00 24.25 L-18.00 22.52 L-19.50 21.65 L-21.00 22.52 L-21.00 24.25 L-19.50 25.11 Z M-9.00 34.64 L-9.00 32.91 L-10.50 32.04 L-12.00 32.91 L-12.00 34.64 L-10.50 35.51 Z M-12.00 29.44 L-12.00 27.71 L-13.50 26.85 L-15.00 27.71 L-15.00 29.44 L-13.50 30.31 Z M-4.50 37.24 L-4.50 35.51 L-6.00 34.64 L-7.50 35.51 L-7.50 37.24 L-6.00 38.11 Z M-6.00 34.64 L-6.00 32.91 L-7.50 32.04 L-9.00 32.91 L-9.00 34.64 L-7.50 35.51 Z M-7.50 32.04 L-7.50 30.31 L-9.00 29.44 L-10.50 30.31 L-10.50 32.04 L-9.00 32.91 Z M-9.00 29.44 L-9.00 27.71 L-10.50 26.85 L-12.00 27.71 L-12.00 29.44 L-10.50 30.31 Z M-3.00 34.64 L-3.00 32.91 L-4.50 32.04 L-6.00 32.91 L-6.00 34.64 L-4.50 35.51 Z M-4.50 32.04 L-4.50 30.31 L-6.00 29.44 L-7.50 30.31 L-7.50 32.04 L-6.00 32.91 Z M-6.00 29.44 L-6.00 27.71 L-7.50 26.85 L-9.00 27.71 L-9.00 29.44 L-7.50 30.31 Z" fill="#00c398" stroke="#00c398" stroke-width="0.02"/>
<path d="M-16.50 26.85 L-15.00 27.71 M-18.00 27.71 L-18.00 29.44 M-18.00 29.44 L-16.50 30.31 M-16.50 30.31 L-15.00 29.44 M-16.50 25.11 L-16.50 26.85 M-18.00 24.25 L-16.50 25.11 M-19.50 25.11 L-19.50 26.85 M-19.50 26.85 L-18.00 27.71 M-18.00 22.52 L-18.00 24.25 M-19.50 21.65 L-18.00 22.52 M-21.00 22.52 L-19.50 21.65 M-21.00 22.52 L-21.00 24.25 M-21.00 24.25 L-19.50 25.11 M-12.00 32.91 L-10.50 32.04 M-12.00 32.91 L-12.00 34.64 M-12.00 34.64 L-10.50 35.51 M-10.50 35.51 L-9.00 34.64 M-13.50 26.85 L-12.00 27.71 M-15.00 27.71 L-13.50 26.85 M-15.00 29.44 L-13.50 30.31 M-13.50 30.31 L-12.00 29.44 M-4.50 35.51 L-4.50 37.24 M-7.50 35.51 L-7.50 37.24 M-7.50 37.24 L-6.00 38.11 M-6.00 38.11 L-4.50 37.24 M-9.00 34.64 L-7.50 35.51 M-10.50 30.31 L-10.50 32.04 M-10.50 26.85 L-9.00 27.71 M-12.00 27.71 L-10.50 26.85 M-12.00 29.44 L-10.50 30.31 M-3.00 32.91 L-3.00 34.64 M-4.50 32.04 L-3.00 32.91 M-4.50 35.51 L-3.00 34.64 M-4.50 30.31 L-4.50 32.04 M-6.00 29.44 L-4.50 30.31 M-6.00 27.71 L-6.00 29.44 M-7.50 26.85 L-6.00 27.71 M-9.00 27.71 L-7.50 26.85" stroke="#1f2833" stroke-width="0.09" stroke-linecap="round" fill="none"/>
<path d="M13.50 37.24 L13.50 35.51 L12.00 34.64 L10.50 35.51 L10.50 37.24 L12.00 38.11 Z M12.00 39.84 L12.00 38.11 L10.50 37.24 L9.00 38.11 L9.00 39.84 L10.50 40.70 Z M10.50 42.44 L10.50 40.70 L9.00 39.84 L7.50 40.70 L7.50 42.44 L9.00 43.30 Z M15.00 29.44 L15.00 27.71 L13.50 26.85 L12.00 27.71 L12.00 29.44 L13.50 30.31 Z M12.00 34.64 L12.00 32.91 L10.50 32.04 L9.00 32.91 L9.00 34.64 L10.50 35.51 Z M15.00 24.25 L15.00 22.52 L13.50 21.65 L12.00 22.52 L12.00 24.25 L13.50 25.11 Z M13.50 26.85 L13.50 25.11 L12.00 24.25 L10.50 25.11 L10.50 26.85 L12.00 27.71 Z M12.00 29.44 L12.00 27.71 L10.50 26.85 L9.00 27.71 L9.00 29.44 L10.50 30.31 Z M10.50 32.04 L10.50 30.31 L9.00 29.44 L7.50 30.31 L7.50 32.04 L9.00 32.91 Z M12.00 24.25 L12.00 22.52 L10.50 21.65 L9.00 22.52 L9.00 24.25 L10.50 25.11 Z M10.50 26.85 L10.50 25.11 L9.00 24.25 L7.50 25.11 L7.50 26.85 L9.00 27.71 Z M9.00 29.44 L9.00 27.71 L7.50 26.85 L6.00 27.71 L6.00 29.44 L7.50 30.31 Z" fill="#007dad" stroke="#007dad" stroke-width="0.02"/>
<path d="M13.50 35.51 L13.50 37.24 M12.00 34.64 L13.50 35.51 M10.50 35.51 L10.50 37.24 M12.00 38.11 L13.50 37.24 M12.00 38.11 L12.00 39.84 M9.00 38.11 L10.50 37.24 M9.00 38.11 L9.00 39.84 M10.50 40.70 L12.00 39.84 M10.50 40.70 L10.50 42.44 M7.50 40.70 L9.00 39.84 M7.50 40.70 L7.50 42.44 M7.50 42.44 L9.00 43.30 M9.00 43.30 L10.50 42.44 M15.00 27.71 L15.00 29.44 M13.50 26.85 L15.00 27.71 M12.00 29.44 L13.50 30.31 M13.50 30.31 L15.00 29.44 M12.00 32.91 L12.00 34.64 M10.50 32.04 L12.00 32.91 M9.00 32.91 L9.00 34.64 M9.00 34.64 L10.50 35.51 M15.00 22.52 L15.00 24.25 M13.50 21.65 L15.00 22.52 M12.00 22.52 L13.50 21.65 M13.50 25.11 L15.00 24.25 M13.50 25.11 L13.50 26.85 M10.50 30.31 L12.00 29.44 M10.50 30.31 L10.50 32.04 M7.50 30.31 L7.50 32.04 M7.50 32.04 L9.00 32.91 M10.50 21.65 L12.00 22.52 M9.00 22.52 L10.50 21.65 M9.00 22.52 L9.00 24.25 M7.50 25.11 L9.00 24.25 M7.50 25.11 L7.50 26.85 M6.00 27.71 L7.50 26.85 M6.00 27.71 L6.00 29.44 M6.00 29.44 L7.50 30.31" stroke="#1f2833" stroke-width="0.09" stroke-linecap="round" fill="none"/>
<path d="M-21.00 24.25 L-21.00 22.52 L-22.50 21.65 L-24.00 22.52 L-24.00 24.25 L-22.50 25.11 Z M-19.50 21.65 L-19.50 19.92 L-21.00 19.05 L-22.50 19.92 L-22.50 21.65 L-21.00 22.52 Z M-18.00 19.05 L-18.00 17.32 L-19.50 16.45 L-21.00 17.32 L-21.00 19.05 L-19.50 19.92 Z M-22.50 32.04 L-22.50 30.31 L-24.00 29.44 L-25.50 30.31 L-25.50 32.04 L-24.00 32.91 Z M-19.50 26.85 L-19.50 25.11 L-21.00 24.25 L-22.50 25.11 L-22.50 26.85 L-21.00 27.71 Z M-22.50 37.24 L-22.50 35.51 L-24.00 34.64 L-25.50 35.51 L-25.50 37.24 L-24.00 38.11 Z M-21.00 34.64 L-21.00 32.91 L-22.50 32.04 L-24.00 32.91 L-24.00 34.64 L-22.50 35.51 Z M-19.50 32.04 L-19.50 30.31 L-21.00 29.44 L-22.50 30.31 L-22.50 32.04 L-21.00 32.91 Z M-18.00 29.44 L-18.00 27.71 L-19.50 26.85 L-21.00 27.71 L-21.00 29.44 L-19.50 30.31 Z M-19.50 37.24 L-19.50 35.51 L-21.00 34.64 L-22.50 35.51 L-22.50 37.24 L-21.00 38.11 Z M-18.00 34.64 L-18.00 32.91 L-19.50 32.04 L-21.00 32.91 L-21.00 34.64 L-19.50 35.51 Z M-16.50 32.04 L-16.50 30.31 L-18.00 29.44 L-19.50 30.31 L-19.50 32.04 L-18.00 32.91 Z" fill="#007dad" stroke="#007dad" stroke-width="0.02"/>
<path d="M-21.00 22.52 L-21.00 24.25 M-24.00 22.52 L-22.50 21.65 M-24.00 22.52 L-24.00 24.25 M-24.00 24.25 L-22.50 25.11 M-19.50 19.92 L-19.50 21.65 M-22.50 19.92 L-21.00 19.05 M-22.50 19.92 L-22.50 21.65 M-21.00 22.52 L-19.50 21.65 M-18.00 17.32 L-18.00 19.05 M-19.50 16.45 L-18.00 17.32 M-21.00 17.32 L-19.50 16.45 M-21.00 17.32 L-21.00 19.05 M-19.50 19.92 L-18.00 19.05 M-24.00 29.44 L-22.50 30.31 M-25.50 30.31 L-24.00 29.44 M-25.50 30.31 L-25.50 32.04 M-25.50 32.04 L-24.00 32.91 M-19.50 25.11 L-19.50 26.85 M-21.00 24.25 L-19.50 25.11 M-22.50 25.11 L-22.50 26.85 M-22.50 26.85 L-21.00 27.71 M-25.50 35.51 L-24.00 34.64 M-25.50 35.51 L-25.50 37.24 M-25.50 37.24 L-24.00 38.11 M-24.00 38.11 L-22.50 37.24 M-24.00 32.91 L-24.00 34.64 M-22.50 30.31 L-21.00 29.44 M-18.00 27.71 L-18.00 29.44 M-19.50 26.85 L-18.00 27.71 M-21.00 27.71 L-21.00 29.44 M-19.50 35.51 L-19.50 37.24 M-22.50 37.24 L-21.00 38.11 M-21.00 38.11 L-19.50 37.24 M-18.00 32.91 L-18.00 34.64 M-19.50 35.51 L-18.00 34.64 M-16.50 30.31 L-16.50 32.04 M-18.00 29.44 L-16.50 30.31 M-18.00 32.91 L-16.50 32.04" stroke="#1f2833" stroke-width="0.09" stroke-linecap="round" fill="none"/>
<path d="M-7.50 26.85 L-7.50 25.11 L-9.00 24.25 L-10.50 25.11 L-10.50 26.85 L-9.00 27.71 Z M-10.50 26.85 L-10.50 25.11 L-12.00 24.25 L-13.50 25.11 L-13.50 26.85 L-12.00 27.71 Z M-13.50 26.85 L-13.50 25.11 L-15.00 24.25 L-16.50 25.11 L-16.50 26.85 L-15.00 27.71 Z M0.00 24.25 L0.00 22.52 L-1.50 21.65 L-3.00 22.52 L-3.00 24.25 L-1.50 25.11 Z M-6.00 24.25 L-6.00 22.52 L-7.50 21.65 L-9.00 22.52 L-9.00 24.25 L-7.50 25.11 Z M4.50 21.65 L4.50 19.92 L3.00 19.05 L1.50 19.92 L1.50 21.65 L3.00 22.52 Z M1.50 21.65 L1.50 19.92 L0.00 19.05 L-1.50 19.92 L-1.50 21.65 L0.00 22.52 Z M-1.50 21.65 L-1.50 19.92 L-3.00 19.05 L-4.50 19.92 L-4.50 21.65 L-3.00 22.52 Z M-4.50 21.65 L-4.50 19.92 L-6.00 19.05 L-7.50 19.92 L-7.50 21.65 L-6.00 22.52 Z M3.00 19.05 L3.00 17.32 L1.50 16.45 L0.00 17.32 L0.00 19.05 L1.50 19.92 Z M0.00 19.05 L0.00 17.32 L-1.50 16.45 L-3.00 17.32 L-3.00 19.05 L-1.50 19.92 Z M-3.00 19.05 L-3.00 17.32 L-4.50 16.45 L-6.00 17.32 L-6.00 19.05 L-4.50 19.92 Z" fill="#20aaff" stroke="#20aaff" stroke-width="0.02"/>
<path d="M-7.50 25.11 L-7.50 26.85 M-10.50 25.11 L-9.00 24.25 M-10.50 26.85 L-9.00 27.71 M-9.00 27.71 L-7.50 26.85 M-12.00 24.25 L-10.50 25.11 M-13.50 25.11 L-12.00 24.25 M-13.50 26.85 L-12.00 27.71 M-12.00 27.71 L-10.50 26.85 M-15.00 24.25 L-13.50 25.11 M-16.50 25.11 L-15.00 24.25 M-16.50 25.11 L-16.50 26.85 M-16.50 26.85 L-15.00 27.71 M-15.00 27.71 L-13.50 26.85 M0.00 22.52 L0.00 24.25 M-3.00 22.52 L-3.00 24.25 M-3.00 24.25 L-1.50 25.11 M-1.50 25.11 L0.00 24.25 M-6.00 22.52 L-6.00 24.25 M-9.00 22.52 L-7.50 21.65 M-9.00 22.52 L-9.00 24.25 M-7.50 25.11 L-6.00 24.25 M4.50 19.92 L4.50 21.65 M3.00 19.05 L4.50 19.92 M1.50 21.65 L3.00 22.52 M3.00 22.52 L4.50 21.65 M0.00 22.52 L1.50 21.65 M-4.50 21.65 L-3.00 22.52 M-7.50 19.92 L-6.00 19.05 M-7.50 19.92 L-7.50 21.65 M-6.00 22.52 L-4.50 21.65 M3.00 17.32 L3.00 19.05 M1.50 16.45 L3.00 17.32 M0.00 17.32 L1.50 16.45 M-1.50 16.45 L0.00 17.32 M-3.00 17.32 L-1.50 16.45 M-4.50 16.45 L-3.00 17.32 M-6.00 17.32 L-4.50 16.45 M-6.00 17.32 L-6.00 19.05" stroke="#1f2833" stroke-width="0.09" stroke-linecap="round" fill="none"/>
<path d="M-6.00 -22.52 L-6.00 -24.25 L-7.50 -25.11 L-9.00 -24.25 L-9.00 -22.52 L-7.50 -21.65 Z M-4.50 -19.92 L-4.50 -21.65 L-6.00 -22.52 L-7.50 -21.65 L-7.50 -19.92 L-6.00 -19.05 Z M-3.00 -17.32 L-3.00 -19.05 L-4.50 -19.92 L-6.00 -19.05 L-6.00 -17.32 L-4.50 -16.45 Z M-12.00 -27.71 L-12.00 -29.44 L-13.50 -30.31 L-15.00 -29.44 L-15.00 -27.71 L-13.50 -26.85 Z M-9.00 -22.52 L-9.00 -24.25 L-10.50 -25.11 L-12.00 -24.25 L-12.00 -22.52 L-10.50 -21.65 Z M-16.50 -30.31 L-16.50 -32.04 L-18.00 -32.91 L-19.50 -32.04 L-19.50 -30.31 L-18.00 -29.44 Z M-15.00 -27.71 L-15.00 -29.44 L-16.50 -30.31 L-18.00 -29.44 L-18.00 -27.71 L-16.50 -26.85 Z M-13.50 -25.11 L-13.50 -26.85 L-15.00 -27.71 L-16.50 -26.85 L-16.50 -25.11 L-15.00 -24.25 Z M-12.00 -22.52 L-12.00 -24.25 L-13.50 -25.11 L-15.00 -24.25 L-15.00 -22.52 L-13.50 -21.65 Z M-18.00 -27.71 L-18.00 -29.44 L-19.50 -30.31 L-21.00 -29.44 L-21.00 -27.71 L-19.50 -26.85 Z M-16.50 -25.11 L-16.50 -26.85 L-18.00 -27.71 L-19.50 -26.85 L-19.50 -25.11 L-18.00 -24.25 Z M-15.00 -22.52 L-15.00 -24.25 L-16.50 -25.11 L-18.00 -24.25 L-18.00 -22.52 L-16.50 -21.65 Z" fill="#00c398" stroke="#00c398" stroke-width="0.02"/>
<path d="M-6.00 -24.25 L-6.00 -22.52 M-7.50 -25.11 L-6.00 -24.25 M-9.00 -24.25 L-7.50 -25.11 M-9.00 -22.52 L-7.50 -21.65 M-4.50 -21.65 L-4.50 -19.92 M-6.00 -22.52 L-4.50 -21.65 M-7.50 -21.65 L-7.50 -19.92 M-7.50 -19.92 L-6.00 -19.05 M-3.00 -19.05 L-3.00 -17.32 M-4.50 -19.92 L-3.00 -19.05 M-6.00 -19.05 L-6.00 -17.32 M-6.00 -17.32 L-4.50 -16.45 M-4.50 -16.45 L-3.00 -17.32 M-12.00 -29.44 L-12.00 -27.71 M-13.50 -30.31 L-12.00 -29.44 M-15.00 -29.44 L-13.50 -30.31 M-13.50 -26.85 L-12.00 -27.71 M-10.50 -25.11 L-9.00 -24.25 M-12.00 -24.25 L-10.50 -25.11 M-12.00 -22.52 L-10.50 -21.65 M-10.50 -21.65 L-9.00 -22.52 M-16.50 -32.04 L-16.50 -30.31 M-18.00 -32.91 L-16.50 -32.04 M-19.50 -32.04 L-18.00 -32.91 M-19.50 -32.04 L-19.50 -30.31 M-16.50 -30.31 L-15.00 -29.44 M-13.50 -26.85 L-13.50 -25.11 M-13.50 -25.11 L-12.00 -24.25 M-15.00 -22.52 L-13.50 -21.65 M-13.50 -21.65 L-12.00 -22.52 M-21.00 -29.44 L-19.50 -30.31 M-21.00 -29.44 L-21.00 -27.71 M-21.00 -27.71 L-19.50 -26.85 M-19.50 -26.85 L-19.50 -25.11 M-19.50 -25.11 L-18.00 -24.25 M-18.00 -24.25 L-18.00 -22.52 M-18.00 -22.52 L-16.50 -21.65 M-16.50 -21.65 L-15.00 -22.52" stroke="#1f2833" stroke-width="0.09" stroke-linecap="round" fill="none"/>
<path d="M-28.50 -25.11 L-28.50 -26.85 L-30.00 -27.71 L-31.50 -26.85 L-31.50 -25.11 L-30.00 -24.25 Z M-30.00 -27.71 L-30.00 -29.44 L-31.50 -30.31 L-33.00 -29.44 L-33.00 -27.71 L-31.50 -26.85 Z M-31.50 -30.31 L-31.50 -32.04 L-33.00 -32.91 L-34.50 -32.04 L-34.50 -30.31 L-33.00 -29.44 Z M-22.50 -19.92 L-22.50 -21.65 L-24.00 -22.52 L-25.50 -21.65 L-25.50 -19.92 L-24.00 -19.05 Z M-25.50 -25.11 L-25.50 -26.85 L-27.00 -27.71 L-28.50 -26.85 L-28.50 -25.11 L-27.00 -24.25 Z M-18.00 -17.32 L-18.00 -19.05 L-19.50 -19.92 L-21.00 -19.05 L-21.00 -17.32 L-19.50 -16.45 Z M-19.50 -19.92 L-19.50 -21.65 L-21.00 -22.52 L-22.50 -21.65 L-22.50 -19.92 L-21.00 -19.05 Z M-21.00 -22.52 L-21.00 -24.25 L-22.50 -25.11 L-24.00 -24.25 L-24.00 -22.52 L-22.50 -21.65 Z M-22.50 -25.11 L-22.50 -26.85 L-24.00 -27.71 L-25.50 -26.85 L-25.50 -25.11 L-24.00 -24.25 Z M-16.50 -19.92 L-16.50 -21.65 L-18.00 -22.52 L-19.50 -21.65 L-19.50 -19.92 L-18.00 -19.05 Z M-18.00 -22.52 L-18.00 -24.25 L-19.50 -25.11 L-21.00 -24.25 L-21.00 -22.52 L-19.50 -21.65 Z M-19.50 -25.11 L-19.50 -26.85 L-21.00 -27.71 L-22.50 -26.85 L-22.50 -25.11 L-21.00 -24.25 Z" fill="#00c398" stroke="#00c398" stroke-width="0.02"/>
<path d="M-30.00 -27.71 L-28.50 -26.85 M-31.50 -26.85 L-31.50 -25.11 M-31.50 -25.11 L-30.00 -24.25 M-30.00 -24.25 L-28.50 -25.11 M-30.00 -29.44 L-30.00 -27.71 M-31.50 -30.31 L-30.00 -29.44 M-33.00 -29.44 L-33.00 -27.71 M-33.00 -27.71 L-31.50 -26.85 M-31.50 -32.04 L-31.50 -30.31 M-33.00 -32.91 L-31.50 -32.04 M-34.50 -32.04 L-33.00 -32.91 M-34.50 -32.04 L-34.50 -30.31 M-34.50 -30.31 L-33.00 -29.44 M-25.50 -21.65 L-24.00 -22.52 M-25.50 -21.65 L-25.50 -19.92 M-25.50 -19.92 L-24.00 -19.05 M-24.00 -19.05 L-22.50 -19.92 M-27.00 -27.71 L-25.50 -26.85 M-28.50 -26.85 L-27.00 -27.71 M-28.50 -25.11 L-27.00 -24.25 M-27.00 -24.25 L-25.50 -25.11 M-18.00 -19.05 L-18.00 -17.32 M-21.00 -19.05 L-21.00 -17.32 M-21.00 -17.32 L-19.50 -16.45 M-19.50 -16.45 L-18.00 -17.32 M-22.50 -19.92 L-21.00 -19.05 M-24.00 -24.25 L-24.00 -22.52 M-24.00 -27.71 L-22.50 -26.85 M-25.50 -26.85 L-24.00 -27.71 M-25.50 -25.11 L-24.00 -24.25 M-16.50 -21.65 L-16.50 -19.92 M-18.00 -22.52 L-16.50 -21.65 M-18.00 -19.05 L-16.50 -19.92 M-18.00 -24.25 L-18.00 -22.52 M-19.50 -25.11 L-18.00 -24.25 M-19.50 -26.85 L-19.50 -25.11 M-21.00 -27.71 L-19.50 -26.85 M-22.50 -26.85 L-21.00 -27.71" stroke="#1f2833" stroke-width="0.09" stroke-linecap="round" fill="none"/>
<path d="M0.00 -17.32 L0.00 -19.05 L-1.50 -19.92 L-3.00 -19.05 L-3.00 -17.32 L-1.50 -16.45 Z M-1.50 -14.72 L-1.50 -16.45 L-3.00 -17.32 L-4.50 -16.45 L-4.50 -14.72 L-3.00 -13.86 Z M-3.00 -12.12 L-3.00 -13.86 L-4.50 -14.72 L-6.00 -13.86 L-6.00 -12.12 L-4.50 -11.26 Z M1.50 -25.11 L1.50 -26.85 L0.00 -27.71 L-1.50 -26.85 L-1.50 -25.11 L0.00 -24.25 Z M-1.50 -19.92 L-1.50 -21.65 L-3.00 -22.52 L-4.50 -21.65 L-4.50 -19.92 L-3.00 -19.05 Z M1.50 -30.31 L1.50 -32.04 L0.00 -32.91 L-1.50 -32.04 L-1.50 -30.31 L0.00 -29.44 Z M0.00 -27.71 L0.00 -29.44 L-1.50 -30.31 L-3.00 -29.44 L-3.00 -27.71 L-1.50 -26.85 Z M-1.50 -25.11 L-1.50 -26.85 L-3.00 -27.71 L-4.50 -26.85 L-4.50 -25.11 L-3.00 -24.25 Z M-3.00 -22.52 L-3.00 -24.25 L-4.50 -25.11 L-6.00 -24.25 L-6.00 -22.52 L-4.50 -21.65 Z M-1.50 -30.31 L-1.50 -32.04 L-3.00 -32.91 L-4.50 -32.04 L-4.50 -30.31 L-3.00 -29.44 Z M-3.00 -27.71 L-3.00 -29.44 L-4.50 -30.31 L-6.00 -29.44 L-6.00 -27.71 L-4.50 -26.85 Z M-4.50 -25.11 L-4.50 -26.85 L-6.00 -27.71 L-7.50 -26.85 L-7.50 -25.11 L-6.00 -24.25 Z" fill="#007dad" stroke="#007dad" stroke-width="0.02"/>
<path d="M0.00 -19.05 L0.00 -17.32 M-1.50 -19.92 L0.00 -19.05 M-3.00 -19.05 L-3.00 -17.32 M-1.50 -16.45 L0.00 -17.32 M-1.50 -16.45 L-1.50 -14.72 M-4.50 -16.45 L-3.00 -17.32 M-4.50 -16.45 L-4.50 -14.72 M-3.00 -13.86 L-1.50 -14.72 M-3.00 -13.86 L-3.00 -12.12 M-6.00 -13.86 L-4.50 -14.72 M-6.00 -13.86 L-6.00 -12.12 M-6.00 -12.12 L-4.50 -11.26 M-4.50 -11.26 L-3.00 -12.12 M1.50 -26.85 L1.50 -25.11 M0.00 -27.71 L1.50 -26.85 M-1.50 -25.11 L0.00 -24.25 M0.00 -24.25 L1.50 -25.11 M-1.50 -21.65 L-1.50 -19.92 M-3.00 -22.52 L-1.50 -21.65 M-4.50 -21.65 L-4.50 -19.92 M-4.50 -19.92 L-3.00 -19.05 M1.50 -32.04 L1.50 -30.31 M0.00 -32.91 L1.50 -32.04 M-1.50 -32.04 L0.00 -32.91 M0.00 -29.44 L1.50 -30.31 M0.00 -29.44 L0.00 -27.71 M-3.00 -24.25 L-1.50 -25.11 M-3.00 -24.25 L-3.00 -22.52 M-6.00 -24.25 L-6.00 -22.52 M-6.00 -22.52 L-4.50 -21.65 M-3.00 -32.91 L-1.50 -32.04 M-4.50 -32.04 L-3.00 -32.91 M-4.50 -32.04 L-4.50 -30.31 M-6.00 -29.44 L-4.50 -30.31 M-6.00 -29.44 L-6.00 -27.71 M-7.50 -26.85 L-6.00 -27.71 M-7.50 -26.85 L-7.50 -25.11 M-7.50 -25.11 L-6.00 -24.25" stroke="#1f2833" stroke-width="0.09" stroke-linecap="round" fill="none"/>
<path d="M-13.50 -19.92 L-13.50 -21.65 L-15.00 -22.52 L-16.50 -21.65 L-16.50 -19.92 L-15.00 -19.05 Z M-10.50 -19.92 L-10.50 -21.65 L-12.00 -22.52 L-13.50 -21.65 L-13.50 -19.92 L-12.00 -19.05 Z M-7.50 -19.92 L-7.50 -21.65 L-9.00 -22.52 L-10.50 -21.65 L-10.50 -19.92 L-9.00 -19.05 Z M-21.00 -17.32 L-21.00 -19.05 L-22.50 -19.92 L-24.00 -19.05 L-24.00 -17.32 L-22.50 -16.45 Z M-15.00 -17.32 L-15.00 -19.05 L-16.50 -19.92 L-18.00 -19.05 L-18.00 -17.32 L-16.50 -16.45 Z M-25.50 -14.72 L-25.50 -16.45 L-27.00 -17.32 L-28.50 -16.45 L-28.50 -14.72 L-27.00 -13.86 Z M-22.50 -14.72 L-22.50 -16.45 L-24.00 -17.32 L-25.50 -16.45 L-25.50 -14.72 L-24.00 -13.86 Z M-19.50 -14.72 L-19.50 -16.45 L-21.00 -17.32 L-22.50 -16.45 L-22.50 -14.72 L-21.00 -13.86 Z M-16.50 -14.72 L-16.50 -16.45 L-18.00 -17.32 L-19.50 -16.45 L-19.50 -14.72 L-18.00 -13.86 Z M-24.00 -12.12 L-24.00 -13.86 L-25.50 -14.72 L-27.00 -13.86 L-27.00 -12.12 L-25.50 -11.26 Z M-21.00 -12.12 L-21.00 -13.86 L-22.50 -14.72 L-24.00 -13.86 L-24.00 -12.12 L-22.50 -11.26 Z M-18.00 -12.12 L-18.00 -13.86 L-19.50 -14.72 L-21.00 -13.86 L-21.00 -12.12 L-19.50 -11.26 Z" fill="#20aaff" stroke="#20aaff" stroke-width="0.02"/>
<path d="M-15.00 -22.52 L-13.50 -21.65 M-16.50 -21.65 L-15.00 -22.52 M-16.50 -21.65 L-16.50 -19.92 M-15.00 -19.05 L-13.50 -19.92 M-12.00 -22.52 L-10.50 -21.65 M-13.50 -21.65 L-12.00 -22.52 M-13.50 -19.92 L-12.00 -19.05 M-12.00 -19.05 L-10.50 -19.92 M-7.50 -21.65 L-7.50 -19.92 M-9.00 -22.52 L-7.50 -21.65 M-10.50 -21.65 L-9.00 -22.52 M-10.50 -19.92 L-9.00 -19.05 M-9.00 -19.05 L-7.50 -19.92 M-21.00 -19.05 L-21.00 -17.32 M-22.50 -19.92 L-21.00 -19.05 M-24.00 -19.05 L-22.50 -19.92 M-24.00 -19.05 L-24.00 -17.32 M-15.00 -19.05 L-15.00 -17.32 M-18.00 -19.05 L-16.50 -19.92 M-18.00 -19.05 L-18.00 -17.32 M-16.50 -16.45 L-15.00 -17.32 M-27.00 -17.32 L-25.50 -16.45 M-28.50 -16.45 L-27.00 -17.32 M-28.50 -16.45 L-28.50 -14.72 M-28.50 -14.72 L-27.00 -13.86 M-25.50 -16.45 L-24.00 -17.32 M-21.00 -17.32 L-19.50 -16.45 M-16.50 -16.45 L-16.50 -14.72 M-19.50 -16.45 L-18.00 -17.32 M-18.00 -13.86 L-16.50 -14.72 M-27.00 -13.86 L-27.00 -12.12 M-27.00 -12.12 L-25.50 -11.26 M-25.50 -11.26 L-24.00 -12.12 M-24.00 -12.12 L-22.50 -11.26 M-22.50 -11.26 L-21.00 -12.12 M-18.00 -13.86 L-18.00 -12.12 M-21.00 -12.12 L-19.50 -11.26 M-19.50 -11.26 L-18.00 -12.12" stroke="#1f2833" stroke-width="0.09" stroke-linecap="round" fill="none"/>
<path d="M-16.50 -9.53 L-16.50 -11.26 L-18.00 -12.12 L-19.50 -11.26 L-19.50 -9.53 L-18.00 -8.66 Z M-19.50 -9.53 L-19.50 -11.26 L-21.00 -12.12 L-22.50 -11.26 L-22.50 -9.53 L-21.00 -8.66 Z M-22.50 -9.53 L-22.50 -11.26 L-24.00 -12.12 L-25.50 -11.26 L-25.50 -9.53 L-24.00 -8.66 Z M-9.00 -12.12 L-9.00 -13.86 L-10.50 -14.72 L-12.00 -13.86 L-12.00 -12.12 L-10.50 -11.26 Z M-15.00 -12.12 L-15.00 -13.86 L-16.50 -14.72 L-18.00 -13.86 L-18.00 -12.12 L-16.50 -11.26 Z M-4.50 -14.72 L-4.50 -16.45 L-6.00 -17.32 L-7.50 -16.45 L-7.50 -14.72 L-6.00 -13.86 Z M-7.50 -14.72 L-7.50 -16.45 L-9.00 -17.32 L-10.50 -16.45 L-10.50 -14.72 L-9.00 -13.86 Z M-10.50 -14.72 L-10.50 -16.45 L-12.00 -17.32 L-13.50 -16.45 L-13.50 -14.72 L-12.00 -13.86 Z M-13.50 -14.72 L-13.50 -16.45 L-15.00 -17.32 L-16.50 -16.45 L-16.50 -14.72 L-15.00 -13.86 Z M-6.00 -17.32 L-6.00 -19.05 L-7.50 -19.92 L-9.00 -19.05 L-9.00 -17.32 L-7.50 -16.45 Z M-9.00 -17.32 L-9.00 -19.05 L-10.50 -19.92 L-12.00 -19.05 L-12.00 -17.32 L-10.50 -16.45 Z M-12.00 -17.32 L-12.00 -19.05 L-13.50 -19.92 L-15.00 -19.05 L-15.00 -17.32 L-13.50 -16.45 Z" fill="#785ace" stroke="#785ace" stroke-width="0.02"/>
<path d="M-16.50 -11.26 L-16.50 -9.53 M-19.50 -11.26 L-18.00 -12.12 M-19.50 -9.53 L-18.00 -8.66 M-18.00 -8.66 L-16.50 -9.53 M-21.00 -12.12 L-19.50 -11.26 M-22.50 -11.26 L-21.00 -12.12 M-22.50 -9.53 L-21.00 -8.66 M-21.00 -8.66 L-19.50 -9.53 M-24.00 -12.12 L-22.50 -11.26 M-25.50 -11.26 L-24.00 -12.12 M-25.50 -11.26 L-25.50 -9.53 M-25.50 -9.53 L-24.00 -8.66 M-24.00 -8.66 L-22.50 -9.53 M-9.00 -13.86 L-9.00 -12.12 M-12.00 -13.86 L-12.00 -12.12 M-12.00 -12.12 L-10.50 -11.26 M-10.50 -11.26 L-9.00 -12.12 M-15.00 -13.86 L-15.00 -12.12 M-18.00 -13.86 L-16.50 -14.72 M-18.00 -13.86 L-18.00 -12.12 M-16.50 -11.26 L-15.00 -12.12 M-4.50 -16.45 L-4.50 -14.72 M-6.00 -17.32 L-4.50 -16.45 M-7.50 -14.72 L-6.00 -13.86 M-6.00 -13.86 L-4.50 -14.72 M-9.00 -13.86 L-7.50 -14.72 M-13.50 -14.72 L-12.00 -13.86 M-16.50 -16.45 L-15.00 -17.32 M-16.50 -16.45 L-16.50 -14.72 M-15.00 -13.86 L-13.50 -14.72 M-6.00 -19.05 L-6.00 -17.32 M-7.50 -19.92 L-6.00 -19.05 M-9.00 -19.05 L-7.50 -19.92 M-10.50 -19.92 L-9.00 -19.05 M-12.00 -19.05 L-10.50 -19.92 M-13.50 -19.92 L-12.00 -19.05 M-15.00 -19.05 L-13.50 -19.92 M-15.00 -19.05 L-15.00 -17.32" stroke="#1f2833" stroke-width="0.09" stroke-linecap="round" fill="none"/>
<path d="M1.50 -14.72 L1.50 -16.45 L0.00 -17.32 L-1.50 -16.45 L-1.50 -14.72 L0.00 -13.86 Z M4.50 -14.72 L4.50 -16.45 L3.00 -17.32 L1.50 -16.45 L1.50 -14.72 L3.00 -13.86 Z M7.50 -14.72 L7.50 -16.45 L6.00 -17.32 L4.50 -16.45 L4.50 -14.72 L6.00 -13.86 Z M-6.00 -12.12 L-6.00 -13.86 L-7.50 -14.72 L-9.00 -13.86 L-9.00 -12.12 L-7.50 -11.26 Z M0.00 -12.12 L0.00 -13.86 L-1.50 -14.72 L-3.00 -13.86 L-3.00 -12.12 L-1.50 -11.26 Z M-10.50 -9.53 L-10.50 -11.26 L-12.00 -12.12 L-13.50 -11.26 L-13.50 -9.53 L-12.00 -8.66 Z M-7.50 -9.53 L-7.50 -11.26 L-9.00 -12.12 L-10.50 -11.26 L-10.50 -9.53 L-9.00 -8.66 Z M-4.50 -9.53 L-4.50 -11.26 L-6.00 -12.12 L-7.50 -11.26 L-7.50 -9.53 L-6.00 -8.66 Z M-1.50 -9.53 L-1.50 -11.26 L-3.00 -12.12 L-4.50 -11.26 L-4.50 -9.53 L-3.00 -8.66 Z M-9.00 -6.93 L-9.00 -8.66 L-10.50 -9.53 L-12.00 -8.66 L-12.00 -6.93 L-10.50 -6.06 Z M-6.00 -6.93 L-6.00 -8.66 L-7.50 -9.53 L-9.00 -8.66 L-9.00 -6.93 L-7.50 -6.06 Z M-3.00 -6.93 L-3.00 -8.66 L-4.50 -9.53 L-6.00 -8.66 L-6.00 -6.93 L-4.50 -6.06 Z" fill="#785ace" stroke="#785ace" stroke-width="0.02"/>
<path d="M0.00 -17.32 L1.50 -16.45 M-1.50 -16.45 L0.00 -17.32 M-1.50 -16.45 L-1.50 -14.72 M0.00 -13.86 L1.50 -14.72 M3.00 -17.32 L4.50 -16.45 M1.50 -16.45 L3.00 -17.32 M1.50 -14.72 L3.00 -13.86 M3.00 -13.86 L4.50 -14.72 M7.50 -16.45 L7.50 -14.72 M6.00 -17.32 L7.50 -16.45 M4.50 -16.45 L6.00 -17.32 M4.50 -14.72 L6.00 -13.86 M6.00 -13.86 L7.50 -14.72 M-6.00 -13.86 L-6.00 -12.12 M-7.50 -14.72 L-6.00 -13.86 M-9.00 -13.86 L-7.50 -14.72 M-9.00 -13.86 L-9.00 -12.12 M0.00 -13.86 L0.00 -12.12 M-3.00 -13.86 L-1.50 -14.72 M-3.00 -13.86 L-3.00 -12.12 M-1.50 -11.26 L0.00 -12.12 M-12.00 -12.12 L-10.50 -11.26 M-13.50 -11.26 L-12.00 -12.12 M-13.50 -11.26 L-13.50 -9.53 M-13.50 -9.53 L-12.00 -8.66 M-10.50 -11.26 L-9.00 -12.12 M-6.00 -12.12 L-4.50 -11.26 M-1.50 -11.26 L-1.50 -9.53 M-4.50 -11.26 L-3.00 -12.12 M-3.00 -8.66 L-1.50 -9.53 M-12.00 -8.66 L-12.00 -6.93 M-12.00 -6.93 L-10.50 -6.06 M-10.50 -6.06 L-9.00 -6.93 M-9.00 -6.93 L-7.50 -6.06 M-7.50 -6.06 L-6.00 -6.93 M-3.00 -8.66 L-3.00 -6.93 M-6.00 -6.93 L-4.50 -6.06 M-4.50 -6.06 L-3.00 -6.93" stroke="#1f2833" stroke-width="0.09" stroke-linecap="round" fill="none"/>
<path d="M13.50 0.87 L13.50 -0.87 L12.00 -1.73 L10.50 -0.87 L10.50 0.87 L12.00 1.73 Z M15.00 3.46 L15.00 1.73 L13.50 0.87 L12.00 1.73 L12.00 3.46 L13.50 4.33 Z M16.50 6.06 L16.50 4.33 L15.00 3.46 L13.50 4.33 L13.50 6.06 L15.00 6.93 Z M7.50 -4.33 L7.50 -6.06 L6.00 -6.93 L4.50 -6.06 L4.50 -4.33 L6.00 -3.46 Z M10.50 0.87 L10.50 -0.87 L9.00 -1.73 L7.50 -0.87 L7.50 0.87 L9.00 1.73 Z M3.00 -6.93 L3.00 -8.66 L1.50 -9.53 L0.00 -8.66 L0.00 -6.93 L1.50 -6.06 Z M4.50 -4.33 L4.50 -6.06 L3.00 -6.93 L1.50 -6.06 L1.50 -4.33 L3.00 -3.46 Z M6.00 -1.73 L6.00 -3.46 L4.50 -4.33 L3.00 -3.46 L3.00 -1.73 L4.50 -0.87 Z M7.50 0.87 L7.50 -0.87 L6.00 -1.73 L4.50 -0.87 L4.50 0.87 L6.00 1.73 Z M1.50 -4.33 L1.50 -6.06 L0.00 -6.93 L-1.50 -6.06 L-1.50 -4.33 L0.00 -3.46 Z M3.00 -1.73 L3.00 -3.46 L1.50 -4.33 L0.00 -3.46 L0.00 -1.73 L1.50 -0.87 Z M4.50 0.87 L4.50 -0.87 L3.00 -1.73 L1.50 -0.87 L1.50 0.87 L3.00 1.73 Z" fill="#00c398" stroke="#00c398" stroke-width="0.02"/>
<path d="M13.50 -0.87 L13.50 0.87 M12.00 -1.73 L13.50 -0.87 M10.50 -0.87 L12.00 -1.73 M10.50 0.87 L12.00 1.73 M15.00 1.73 L15.00 3.46 M13.50 0.87 L15.00 1.73 M12.00 1.73 L12.00 3.46 M12.00 3.46 L13.50 4.33 M16.50 4.33 L16.50 6.06 M15.00 3.46 L16.50 4.33 M13.50 4.33 L13.50 6.06 M13.50 6.06 L15.00 6.93 M15.00 6.93 L16.50 6.06 M7.50 -6.06 L7.50 -4.33 M6.00 -6.93 L7.50 -6.06 M4.50 -6.06 L6.00 -6.93 M6.00 -3.46 L7.50 -4.33 M9.00 -1.73 L10.50 -0.87 M7.50 -0.87 L9.00 -1.73 M7.50 0.87 L9.00 1.73 M9.00 1.73 L10.50 0.87 M3.00 -8.66 L3.00 -6.93 M1.50 -9.53 L3.00 -8.66 M0.00 -8.66 L1.50 -9.53 M0.00 -8.66 L0.00 -6.93 M3.00 -6.93 L4.50 -6.06 M6.00 -3.46 L6.00 -1.73 M6.00 -1.73 L7.50 -0.87 M4.50 0.87 L6.00 1.73 M6.00 1.73 L7.50 0.87 M-1.50 -6.06 L0.00 -6.93 M-1.50 -6.06 L-1.50 -4.33 M-1.50 -4.33 L0.00 -3.46 M0.00 -3.46 L0.00 -1.73 M0.00 -1.73 L1.50 -0.87 M1.50 -0.87 L1.50 0.87 M1.50 0.87 L3.00 1.73 M3.00 1.73 L4.50 0.87" stroke="#1f2833" stroke-width="0.09" stroke-linecap="round" fill="none"/>
<path d="M-9.00 -1.73 L-9.00 -3.46 L-10.50 -4.33 L-12.00 -3.46 L-12.00 -1.73 L-10.50 -0.87 Z M-10.50 -4.33 L-10.50 -6.06 L-12.00 -6.93 L-13.50 -6.06 L-13.50 -4.33 L-12.00 -3.46 Z M-12.00 -6.93 L-12.00 -8.66 L-13.50 -9.53 L-15.00 -8.66 L-15.00 -6.93 L-13.50 -6.06 Z M-3.00 3.46 L-3.00 1.73 L-4.50 0.87 L-6.00 1.73 L-6.00 3.46 L-4.50 4.33 Z M-6.00 -1.73 L-6.00 -3.46 L-7.50 -4.33 L-9.00 -3.46 L-9.00 -1.73 L-7.50 -0.87 Z M1.50 6.06 L1.50 4.33 L0.00 3.46 L-1.50 4.33 L-1.50 6.06 L0.00 6.93 Z M0.00 3.46 L0.00 1.73 L-1.50 0.87 L-3.00 1.73 L-3.00 3.46 L-1.50 4.33 Z M-1.50 0.87 L-1.50 -0.87 L-3.00 -1.73 L-4.50 -0.87 L-4.50 0.87 L-3.00 1.73 Z M-3.00 -1.73 L-3.00 -3.46 L-4.50 -4.33 L-6.00 -3.46 L-6.00 -1.73 L-4.50 -0.87 Z M3.00 3.46 L3.00 1.73 L1.50 0.87 L0.00 1.73 L0.00 3.46 L1.50 4.33 Z M1.50 0.87 L1.50 -0.87 L0.00 -1.73 L-1.50 -0.87 L-1.50 0.87 L0.00 1.73 Z M0.00 -1.73 L0.00 -3.46 L-1.50 -4.33 L-3.00 -3.46 L-3.00 -1.73 L-1.50 -0.87 Z" fill="#00c398" stroke="#00c398" stroke-width="0.02"/>
<path d="M-10.50 -4.33 L-9.00 -3.46 M-12.00 -3.46 L-12.00 -1.73 M-12.00 -1.73 L-10.50 -0.87 M-10.50 -0.87 L-9.00 -1.73 M-10.50 -6.06 L-10.50 -4.33 M-12.00 -6.93 L-10.50 -6.06 M-13.50 -6.06 L-13.50 -4.33 M-13.50 -4.33 L-12.00 -3.46 M-12.00 -8.66 L-12.00 -6.93 M-13.50 -9.53 L-12.00 -8.66 M-15.00 -8.66 L-13.50 -9.53 M-15.00 -8.66 L-15.00 -6.93 M-15.00 -6.93 L-13.50 -6.06 M-6.00 1.73 L-4.50 0.87 M-6.00 1.73 L-6.00 3.46 M-6.00 3.46 L-4.50 4.33 M-4.50 4.33 L-3.00 3.46 M-7.50 -4.33 L-6.00 -3.46 M-9.00 -3.46 L-7.50 -4.33 M-9.00 -1.73 L-7.50 -0.87 M-7.50 -0.87 L-6.00 -1.73 M1.50 4.33 L1.50 6.06 M-1.50 4.33 L-1.50 6.06 M-1.50 6.06 L0.00 6.93 M0.00 6.93 L1.50 6.06 M-3.00 3.46 L-1.50 4.33 M-4.50 -0.87 L-4.50 0.87 M-4.50 -4.33 L-3.00 -3.46 M-6.00 -3.46 L-4.50 -4.33 M-6.00 -1.73 L-4.50 -0.87 M3.00 1.73 L3.00 3.46 M1.50 0.87 L3.00 1.73 M1.50 4.33 L3.00 3.46 M1.50 -0.87 L1.50 0.87 M0.00 -1.73 L1.50 -0.87 M0.00 -3.46 L0.00 -1.73 M-1.50 -4.33 L0.00 -3.46 M-3.00 -3.46 L-1.50 -4.33" stroke="#1f2833" stroke-width="0.09" stroke-linecap="round" fill="none"/>
<path d="M19.50 6.06 L19.50 4.33 L18.00 3.46 L16.50 4.33 L16.50 6.06 L18.00 6.93 Z M18.00 8.66 L18.00 6.93 L16.50 6.06 L15.00 6.93 L15.00 8.66 L16.50 9.53 Z M16.50 11.26 L16.50 9.53 L15.00 8.66 L13.50 9.53 L13.50 11.26 L15.00 12.12 Z M21.00 -1.73 L21.00 -3.46 L19.50 -4.33 L18.00 -3.46 L18.00 -1.73 L19.50 -0.87 Z M18.00 3.46 L18.00 1.73 L16.50 0.87 L15.00 1.73 L15.00 3.46 L16.50 4.33 Z M21.00 -6.93 L21.00 -8.66 L19.50 -9.53 L18.00 -8.66 L18.00 -6.93 L19.50 -6.06 Z M19.50 -4.33 L19.50 -6.06 L18.00 -6.93 L16.50 -6.06 L16.50 -4.33 L18.00 -3.46 Z M18.00 -1.73 L18.00 -3.46 L16.50 -4.33 L15.00 -3.46 L15.00 -1.73 L16.50 -0.87 Z M16.50 0.87 L16.50 -0.87 L15.00 -1.73 L13.50 -0.87 L13.50 0.87 L15.00 1.73 Z M18.00 -6.93 L18.00 -8.66 L16.50 -9.53 L15.00 -8.66 L15.00 -6.93 L16.50 -6.06 Z M16.50 -4.33 L16.50 -6.06 L15.00 -6.93 L13.50 -6.06 L13.50 -4.33 L15.00 -3.46 Z M15.00 -1.73 L15.00 -3.46 L13.50 -4.33 L12.00 -3.46 L12.00 -1.73 L13.50 -0.87 Z" fill="#007dad" stroke="#007dad" stroke-width="0.02"/>
<path d="M19.50 4.33 L19.50 6.06 M18.00 3.46 L19.50 4.33 M16.50 4.33 L16.50 6.06 M18.00 6.93 L19.50 6.06 M18.00 6.93 L18.00 8.66 M15.00 6.93 L16.50 6.06 M15.00 6.93 L15.00 8.66 M16.50 9.53 L18.00 8.66 M16.50 9.53 L16.50 11.26 M13.50 9.53 L15.00 8.66 M13.50 9.53 L13.50 11.26 M13.50 11.26 L15.00 12.12 M15.00 12.12 L16.50 11.26 M21.00 -3.46 L21.00 -1.73 M19.50 -4.33 L21.00 -3.46 M18.00 -1.73 L19.50 -0.87 M19.50 -0.87 L21.00 -1.73 M18.00 1.73 L18.00 3.46 M16.50 0.87 L18.00 1.73 M15.00 1.73 L15.00 3.46 M15.00 3.46 L16.50 4.33 M21.00 -8.66 L21.00 -6.93 M19.50 -9.53 L21.00 -8.66 M18.00 -8.66 L19.50 -9.53 M19.50 -6.06 L21.00 -6.93 M19.50 -6.06 L19.50 -4.33 M16.50 -0.87 L18.00 -1.73 M16.50 -0.87 L16.50 0.87 M13.50 -0.87 L13.50 0.87 M13.50 0.87 L15.00 1.73 M16.50 -9.53 L18.00 -8.66 M15.00 -8.66 L16.50 -9.53 M15.00 -8.66 L15.00 -6.93 M13.50 -6.06 L15.00 -6.93 M13.50 -6.06 L13.50 -4.33 M12.00 -3.46 L13.50 -4.33 M12.00 -3.46 L12.00 -1.73 M12.00 -1.73 L13.50 -0.87" stroke="#1f2833" stroke-width="0.09" stroke-linecap="round" fill="none"/>
<path d="M-15.00 -6.93 L-15.00 -8.66 L-16.50 -9.53 L-18.00 -8.66 L-18.00 -6.93 L-16.50 -6.06 Z M-13.50 -9.53 L-13.50 -11.26 L-15.00 -12.12 L-16.50 -11.26 L-16.50 -9.53 L-15.00 -8.66 Z M-12.00 -12.12 L-12.00 -13.86 L-13.50 -14.72 L-15.00 -13.86 L-15.00 -12.12 L-13.50 -11.26 Z M-16.50 0.87 L-16.50 -0.87 L-18.00 -1.73 L-19.50 -0.87 L-19.50 0.87 L-18.00 1.73 Z M-13.50 -4.33 L-13.50 -6.06 L-15.00 -6.93 L-16.50 -6.06 L-16.50 -4.33 L-15.00 -3.46 Z M-16.50 6.06 L-16.50 4.33 L-18.00 3.46 L-19.50 4.33 L-19.50 6.06 L-18.00 6.93 Z M-15.00 3.46 L-15.00 1.73 L-16.50 0.87 L-18.00 1.73 L-18.00 3.46 L-16.50 4.33 Z M-13.50 0.87 L-13.50 -0.87 L-15.00 -1.73 L-16.50 -0.87 L-16.50 0.87 L-15.00 1.73 Z M-12.00 -1.73 L-12.00 -3.46 L-13.50 -4.33 L-15.00 -3.46 L-15.00 -1.73 L-13.50 -0.87 Z M-13.50 6.06 L-13.50 4.33 L-15.00 3.46 L-16.50 4.33 L-16.50 6.06 L-15.00 6.93 Z M-12.00 3.46 L-12.00 1.73 L-13.50 0.87 L-15.00 1.73 L-15.00 3.46 L-13.50 4.33 Z M-10.50 0.87 L-10.50 -0.87 L-12.00 -1.73 L-13.50 -0.87 L-13.50 0.87 L-12.00 1.73 Z" fill="#007dad" stroke="#007dad" stroke-width="0.02"/>
<path d="M-15.00 -8.66 L-15.00 -6.93 M-18.00 -8.66 L-16.50 -9.53 M-18.00 -8.66 L-18.00 -6.93 M-18.00 -6.93 L-16.50 -6.06 M-13.50 -11.26 L-13.50 -9.53 M-16.50 -11.26 L-15.00 -12.12 M-16.50 -11.26 L-16.50 -9.53 M-15.00 -8.66 L-13.50 -9.53 M-12.00 -13.86 L-12.00 -12.12 M-13.50 -14.72 L-12.00 -13.86 M-15.00 -13.86 L-13.50 -14.72 M-15.00 -13.86 L-15.00 -12.12 M-13.50 -11.26 L-12.00 -12.12 M-18.00 -1.73 L-16.50 -0.87 M-19.50 -0.87 L-18.00 -1.73 M-19.50 -0.87 L-19.50 0.87 M-19.50 0.87 L-18.00 1.73 M-13.50 -6.06 L-13.50 -4.33 M-15.00 -6.93 L-13.50 -6.06 M-16.50 -6.06 L-16.50 -4.33 M-16.50 -4.33 L-15.00 -3.46 M-19.50 4.33 L-18.00 3.46 M-19.50 4.33 L-19.50 6.06 M-19.50 6.06 L-18.00 6.93 M-18.00 6.93 L-16.50 6.06 M-18.00 1.73 L-18.00 3.46 M-16.50 -0.87 L-15.00 -1.73 M-12.00 -3.46 L-12.00 -1.73 M-13.50 -4.33 L-12.00 -3.46 M-15.00 -3.46 L-15.00 -1.73 M-13.50 4.33 L-13.50 6.06 M-16.50 6.06 L-15.00 6.93 M-15.00 6.93 L-13.50 6.06 M-12.00 1.73 L-12.00 3.46 M-13.50 4.33 L-12.00 3.46 M-10.50 -0.87 L-10.50 0.87 M-12.00 -1.73 L-10.50 -0.87 M-12.00 1.73 L-10.50 0.87" stroke="#1f2833" stroke-width="0.09" stroke-linecap="round" fill="none"/>
<path d="M-1.50 -4.33 L-1.50 -6.06 L-3.00 -6.93 L-4.50 -6.06 L-4.50 -4.33 L-3.00 -3.46 Z M-4.50 -4.33 L-4.50 -6.06 L-6.00 -6.93 L-7.50 -6.06 L-7.50 -4.33 L-6.00 -3.46 Z M-7.50 -4.33 L-7.50 -6.06 L-9.00 -6.93 L-10.50 -6.06 L-10.50 -4.33 L-9.00 -3.46 Z M6.00 -6.93 L6.00 -8.66 L4.50 -9.53 L3.00 -8.66 L3.00 -6.93 L4.50 -6.06 Z M0.00 -6.93 L0.00 -8.66 L-1.50 -9.53 L-3.00 -8.66 L-3.00 -6.93 L-1.50 -6.06 Z M10.50 -9.53 L10.50 -11.26 L9.00 -12.12 L7.50 -11.26 L7.50 -9.53 L9.00 -8.66 Z M7.50 -9.53 L7.50 -11.26 L6.00 -12.12 L4.50 -11.26 L4.50 -9.53 L6.00 -8.66 Z M4.50 -9.53 L4.50 -11.26 L3.00 -12.12 L1.50 -11.26 L1.50 -9.53 L3.00 -8.66 Z M1.50 -9.53 L1.50 -11.26 L0.00 -12.12 L-1.50 -11.26 L-1.50 -9.53 L0.00 -8.66 Z M9.00 -12.12 L9.00 -13.86 L7.50 -14.72 L6.00 -13.86 L6.00 -12.12 L7.50 -11.26 Z M6.00 -12.12 L6.00 -13.86 L4.50 -14.72 L3.00 -13.86 L3.00 -12.12 L4.50 -11.26 Z M3.00 -12.12 L3.00 -13.86 L1.50 -14.72 L0.00 -13.86 L0.00 -12.12 L1.50 -11.26 Z" fill="#20aaff" stroke="#20aaff" stroke-width="0.02"/>
<path d="M-1.50 -6.06 L-1.50 -4.33 M-4.50 -6.06 L-3.00 -6.93 M-4.50 -4.33 L-3.00 -3.46 M-3.00 -3.46 L-1.50 -4.33 M-6.00 -6.93 L-4.50 -6.06 M-7.50 -6.06 L-6.00 -6.93 M-7.50 -4.33 L-6.00 -3.46 M-6.00 -3.46 L-4.50 -4.33 M-9.00 -6.93 L-7.50 -6.06 M-10.50 -6.06 L-9.00 -6.93 M-10.50 -6.06 L-10.50 -4.33 M-10.50 -4.33 L-9.00 -3.46 M-9.00 -3.46 L-7.50 -4.33 M6.00 -8.66 L6.00 -6.93 M3.00 -8.66 L3.00 -6.93 M3.00 -6.93 L4.50 -6.06 M4.50 -6.06 L6.00 -6.93 M0.00 -8.66 L0.00 -6.93 M-3.00 -8.66 L-1.50 -9.53 M-3.00 -8.66 L-3.00 -6.93 M-1.50 -6.06 L0.00 -6.93 M10.50 -11.26 L10.50 -9.53 M9.00 -12.12 L10.50 -11.26 M7.50 -9.53 L9.00 -8.66 M9.00 -8.66 L10.50 -9.53 M6.00 -8.66 L7.50 -9.53 M1.50 -9.53 L3.00 -8.66 M-1.50 -11.26 L0.00 -12.12 M-1.50 -11.26 L-1.50 -9.53 M0.00 -8.66 L1.50 -9.53 M9.00 -13.86 L9.00 -12.12 M7.50 -14.72 L9.00 -13.86 M6.00 -13.86 L7.50 -14.72 M4.50 -14.72 L6.00 -13.86 M3.00 -13.86 L4.50 -14.72 M1.50 -14.72 L3.00 -13.86 M0.00 -13.86 L1.50 -14.72 M0.00 -13.86 L0.00 -12.12" stroke="#1f2833" stroke-width="0.09" stroke-linecap="round" fill="none"/>
<path d="M6.00 3.46 L6.00 1.73 L4.50 0.87 L3.00 1.73 L3.00 3.46 L4.50 4.33 Z M9.00 3.46 L9.00 1.73 L7.50 0.87 L6.00 1.73 L6.00 3.46 L7.50 4.33 Z M12.00 3.46 L12.00 1.73 L10.50 0.87 L9.00 1.73 L9.00 3.46 L10.50 4.33 Z M-1.50 6.06 L-1.50 4.33 L-3.00 3.46 L-4.50 4.33 L-4.50 6.06 L-3.00 6.93 Z M4.50 6.06 L4.50 4.33 L3.00 3.46 L1.50 4.33 L1.50 6.06 L3.00 6.93 Z M-6.00 8.66 L-6.00 6.93 L-7.50 6.06 L-9.00 6.93 L-9.00 8.66 L-7.50 9.53 Z M-3.00 8.66 L-3.00 6.93 L-4.50 6.06 L-6.00 6.93 L-6.00 8.66 L-4.50 9.53 Z M0.00 8.66 L0.00 6.93 L-1.50 6.06 L-3.00 6.93 L-3.00 8.66 L-1.50 9.53 Z M3.00 8.66 L3.00 6.93 L1.50 6.06 L0.00 6.93 L0.00 8.66 L1.50 9.53 Z M-4.50 11.26 L-4.50 9.53 L-6.00 8.66 L-7.50 9.53 L-7.50 11.26 L-6.00 12.12 Z M-1.50 11.26 L-1.50 9.53 L-3.00 8.66 L-4.50 9.53 L-4.50 11.26 L-3.00 12.12 Z M1.50 11.26 L1.50 9.53 L0.00 8.66 L-1.50 9.53 L-1.50 11.26 L0.00 12.12 Z" fill="#20aaff" stroke="#20aaff" stroke-width="0.02"/>
<path d="M4.50 0.87 L6.00 1.73 M3.00 1.73 L4.50 0.87 M3.00 1.73 L3.00 3.46 M4.50 4.33 L6.00 3.46 M7.50 0.87 L9.00 1.73 M6.00 1.73 L7.50 0.87 M6.00 3.46 L7.50 4.33 M7.50 4.33 L9.00 3.46 M12.00 1.73 L12.00 3.46 M10.50 0.87 L12.00 1.73 M9.00 1.73 L10.50 0.87 M9.00 3.46 L10.50 4.33 M10.50 4.33 L12.00 3.46 M-1.50 4.33 L-1.50 6.06 M-3.00 3.46 L-1.50 4.33 M-4.50 4.33 L-3.00 3.46 M-4.50 4.33 L-4.50 6.06 M4.50 4.33 L4.50 6.06 M1.50 4.33 L3.00 3.46 M1.50 4.33 L1.50 6.06 M3.00 6.93 L4.50 6.06 M-7.50 6.06 L-6.00 6.93 M-9.00 6.93 L-7.50 6.06 M-9.00 6.93 L-9.00 8.66 M-9.00 8.66 L-7.50 9.53 M-6.00 6.93 L-4.50 6.06 M-1.50 6.06 L0.00 6.93 M3.00 6.93 L3.00 8.66 M0.00 6.93 L1.50 6.06 M1.50 9.53 L3.00 8.66 M-7.50 9.53 L-7.50 11.26 M-7.50 11.26 L-6.00 12.12 M-6.00 12.12 L-4.50 11.26 M-4.50 11.26 L-3.00 12.12 M-3.00 12.12 L-1.50 11.26 M1.50 9.53 L1.50 11.26 M-1.50 11.26 L0.00 12.12 M0.00 12.12 L1.50 11.26" stroke="#1f2833" stroke-width="0.09" stroke-linecap="round" fill="none"/>
<path d="M3.00 13.86 L3.00 12.12 L1.50 11.26 L0.00 12.12 L0.00 13.86 L1.50 14.72 Z M0.00 13.86 L0.00 12.12 L-1.50 11.26 L-3.00 12.12 L-3.00 13.86 L-1.50 14.72 Z M-3.00 13.86 L-3.00 12.12 L-4.50 11.26 L-6.00 12.12 L-6.00 13.86 L-4.50 14.72 Z M10.50 11.26 L10.50 9.53 L9.00 8.66 L7.50 9.53 L7.50 11.26 L9.00 12.12 Z M4.50 11.26 L4.50 9.53 L3.00 8.66 L1.50 9.53 L1.50 11.26 L3.00 12.12 Z M15.00 8.66 L15.00 6.93 L13.50 6.06 L12.00 6.93 L12.00 8.66 L13.50 9.53 Z M12.00 8.66 L12.00 6.93 L10.50 6.06 L9.00 6.93 L9.00 8.66 L10.50 9.53 Z M9.00 8.66 L9.00 6.93 L7.50 6.06 L6.00 6.93 L6.00 8.66 L7.50 9.53 Z M6.00 8.66 L6.00 6.93 L4.50 6.06 L3.00 6.93 L3.00 8.66 L4.50 9.53 Z M13.50 6.06 L13.50 4.33 L12.00 3.46 L10.50 4.33 L10.50 6.06 L12.00 6.93 Z M10.50 6.06 L10.50 4.33 L9.00 3.46 L7.50 4.33 L7.50 6.06 L9.00 6.93 Z M7.50 6.06 L7.50 4.33 L6.00 3.46 L4.50 4.33 L4.50 6.06 L6.00 6.93 Z" fill="#785ace" stroke="#785ace" stroke-width="0.02"/>
<path d="M3.00 12.12 L3.00 13.86 M0.00 12.12 L1.50 11.26 M0.00 13.86 L1.50 14.72 M1.50 14.72 L3.00 13.86 M-1.50 11.26 L0.00 12.12 M-3.00 12.12 L-1.50 11.26 M-3.00 13.86 L-1.50 14.72 M-1.50 14.72 L0.00 13.86 M-4.50 11.26 L-3.00 12.12 M-6.00 12.12 L-4.50 11.26 M-6.00 12.12 L-6.00 13.86 M-6.00 13.86 L-4.50 14.72 M-4.50 14.72 L-3.00 13.86 M10.50 9.53 L10.50 11.26 M7.50 9.53 L7.50 11.26 M7.50 11.26 L9.00 12.12 M9.00 12.12 L10.50 11.26 M4.50 9.53 L4.50 11.26 M1.50 9.53 L3.00 8.66 M1.50 9.53 L1.50 11.26 M3.00 12.12 L4.50 11.26 M15.00 6.93 L15.00 8.66 M13.50 6.06 L15.00 6.93 M12.00 8.66 L13.50 9.53 M13.50 9.53 L15.00 8.66 M10.50 9.53 L12.00 8.66 M6.00 8.66 L7.50 9.53 M3.00 6.93 L4.50 6.06 M3.00 6.93 L3.00 8.66 M4.50 9.53 L6.00 8.66 M13.50 4.33 L13.50 6.06 M12.00 3.46 L13.50 4.33 M10.50 4.33 L12.00 3.46 M9.00 3.46 L10.50 4.33 M7.50 4.33 L9.00 3.46 M6.00 3.46 L7.50 4.33 M4.50 4.33 L6.00 3.46 M4.50 4.33 L4.50 6.06" stroke="#1f2833" stroke-width="0.09" stroke-linecap="round" fill="none"/>
<path d="M21.00 8.66 L21.00 6.93 L19.50 6.06 L18.00 6.93 L18.00 8.66 L19.50 9.53 Z M24.00 8.66 L24.00 6.93 L22.50 6.06 L21.00 6.93 L21.00 8.66 L22.50 9.53 Z M27.00 8.66 L27.00 6.93 L25.50 6.06 L24.00 6.93 L24.00 8.66 L25.50 9.53 Z M13.50 11.26 L13.50 9.53 L12.00 8.66 L10.50 9.53 L10.50 11.26 L12.00 12.12 Z M19.50 11.26 L19.50 9.53 L18.00 8.66 L16.50 9.53 L16.50 11.26 L18.00 12.12 Z M9.00 13.86 L9.00 12.12 L7.50 11.26 L6.00 12.12 L6.00 13.86 L7.50 14.72 Z M12.00 13.86 L12.00 12.12 L10.50 11.26 L9.00 12.12 L9.00 13.86 L10.50 14.72 Z M15.00 13.86 L15.00 12.12 L13.50 11.26 L12.00 12.12 L12.00 13.86 L13.50 14.72 Z M18.00 13.86 L18.00 12.12 L16.50 11.26 L15.00 12.12 L15.00 13.86 L16.50 14.72 Z M10.50 16.45 L10.50 14.72 L9.00 13.86 L7.50 14.72 L7.50 16.45 L9.00 17.32 Z M13.50 16.45 L13.50 14.72 L12.00 13.86 L10.50 14.72 L10.50 16.45 L12.00 17.32 Z M16.50 16.45 L16.50 14.72 L15.00 13.86 L13.50 14.72 L13.50 16.45 L15.00 17.32 Z" fill="#785ace" stroke="#785ace" stroke-width="0.02"/>
<path d="M19.50 6.06 L21.00 6.93 M18.00 6.93 L19.50 6.06 M18.00 6.93 L18.00 8.66 M19.50 9.53 L21.00 8.66 M22.50 6.06 L24.00 6.93 M21.00 6.93 L22.50 6.06 M21.00 8.66 L22.50 9.53 M22.50 9.53 L24.00 8.66 M27.00 6.93 L27.00 8.66 M25.50 6.06 L27.00 6.93 M24.00 6.93 L25.50 6.06 M24.00 8.66 L25.50 9.53 M25.50 9.53 L27.00 8.66 M13.50 9.53 L13.50 11.26 M12.00 8.66 L13.50 9.53 M10.50 9.53 L12.00 8.66 M10.50 9.53 L10.50 11.26 M19.50 9.53 L19.50 11.26 M16.50 9.53 L18.00 8.66 M16.50 9.53 L16.50 11.26 M18.00 12.12 L19.50 11.26 M7.50 11.26 L9.00 12.12 M6.00 12.12 L7.50 11.26 M6.00 12.12 L6.00 13.86 M6.00 13.86 L7.50 14.72 M9.00 12.12 L10.50 11.26 M13.50 11.26 L15.00 12.12 M18.00 12.12 L18.00 13.86 M15.00 12.12 L16.50 11.26 M16.50 14.72 L18.00 13.86 M7.50 14.72 L7.50 16.45 M7.50 16.45 L9.00 17.32 M9.00 17.32 L10.50 16.45 M10.50 16.45 L12.00 17.32 M12.00 17.32 L13.50 16.45 M16.50 14.72 L16.50 16.45 M13.50 16.45 L15.00 17.32 M15.00 17.32 L16.50 16.45" stroke="#1f2833" stroke-width="0.09" stroke-linecap="round" fill="none"/>
<path d="M33.00 24.25 L33.00 22.52 L31.50 21.65 L30.00 22.52 L30.00 24.25 L31.50 25.11 Z M34.50 26.85 L34.50 25.11 L33.00 24.25 L31.50 25.11 L31.50 26.85 L33.00 27.71 Z M36.00 29.44 L36.00 27.71 L34.50 26.85 L33.00 27.71 L33.00 29.44 L34.50 30.31 Z M27.00 19.05 L27.00 17.32 L25.50 16.45 L24.00 17.32 L24.00 19.05 L25.50 19.92 Z M30.00 24.25 L30.00 22.52 L28.50 21.65 L27.00 22.52 L27.00 24.25 L28.50 25.11 Z M22.50 16.45 L22.50 14.72 L21.00 13.86 L19.50 14.72 L19.50 16.45 L21.00 17.32 Z M24.00 19.05 L24.00 17.32 L22.50 16.45 L21.00 17.32 L21.00 19.05 L22.50 19.92 Z M25.50 21.65 L25.50 19.92 L24.00 19.05 L22.50 19.92 L22.50 21.65 L24.00 22.52 Z M27.00 24.25 L27.00 22.52 L25.50 21.65 L24.00 22.52 L24.00 24.25 L25.50 25.11 Z M21.00 19.05 L21.00 17.32 L19.50 16.45 L18.00 17.32 L18.00 19.05 L19.50 19.92 Z M22.50 21.65 L22.50 19.92 L21.00 19.05 L19.50 19.92 L19.50 21.65 L21.00 22.52 Z M24.00 24.25 L24.00 22.52 L22.50 21.65 L21.00 22.52 L21.00 24.25 L22.50 25.11 Z" fill="#00c398" stroke="#00c398" stroke-width="0.02"/>
<path d="M33.00 22.52 L33.00 24.25 M31.50 21.65 L33.00 22.52 M30.00 22.52 L31.50 21.65 M30.00 24.25 L31.50 25.11 M34.50 25.11 L34.50 26.85 M33.00 24.25 L34.50 25.11 M31.50 25.11 L31.50 26.85 M31.50 26.85 L33.00 27.71 M36.00 27.71 L36.00 29.44 M34.50 26.85 L36.00 27.71 M33.00 27.71 L33.00 29.44 M33.00 29.44 L34.50 30.31 M34.50 30.31 L36.00 29.44 M27.00 17.32 L27.00 19.05 M25.50 16.45 L27.00 17.32 M24.00 17.32 L25.50 16.45 M25.50 19.92 L27.00 19.05 M28.50 21.65 L30.00 22.52 M27.00 22.52 L28.50 21.65 M27.00 24.25 L28.50 25.11 M28.50 25.11 L30.00 24.25 M22.50 14.72 L22.50 16.45 M21.00 13.86 L22.50 14.72 M19.50 14.72 L21.00 13.86 M19.50 14.72 L19.50 16.45 M22.50 16.45 L24.00 17.32 M25.50 19.92 L25.50 21.65 M25.50 21.65 L27.00 22.52 M24.00 24.25 L25.50 25.11 M25.50 25.11 L27.00 24.25 M18.00 17.32 L19.50 16.45 M18.00 17.32 L18.00 19.05 M18.00 19.05 L19.50 19.92 M19.50 19.92 L19.50 21.65 M19.50 21.65 L21.00 22.52 M21.00 22.52 L21.00 24.25 M21.00 24.25 L22.50 25.11 M22.50 25.11 L24.00 24.25" stroke="#1f2833" stroke-width="0.09" stroke-linecap="round" fill="none"/>
<path d="M10.50 21.65 L10.50 19.92 L9.00 19.05 L7.50 19.92 L7.50 21.65 L9.00 22.52 Z M9.00 19.05 L9.00 17.32 L7.50 16.45 L6.00 17.32 L6.00 19.05 L7.50 19.92 Z M7.50 16.45 L7.50 14.72 L6.00 13.86 L4.50 14.72 L4.50 16.45 L6.00 17.32 Z M16.50 26.85 L16.50 25.11 L15.00 24.25 L13.50 25.11 L13.50 26.85 L15.00 27.71 Z M13.50 21.65 L13.50 19.92 L12.00 19.05 L10.50 19.92 L10.50 21.65 L12.00 22.52 Z M21.00 29.44 L21.00 27.71 L19.50 26.85 L18.00 27.71 L18.00 29.44 L19.50 30.31 Z M19.50 26.85 L19.50 25.11 L18.00 24.25 L16.50 25.11 L16.50 26.85 L18.00 27.71 Z M18.00 24.25 L18.00 22.52 L16.50 21.65 L15.00 22.52 L15.00 24.25 L16.50 25.11 Z M16.50 21.65 L16.50 19.92 L15.00 19.05 L13.50 19.92 L13.50 21.65 L15.00 22.52 Z M22.50 26.85 L22.50 25.11 L21.00 24.25 L19.50 25.11 L19.50 26.85 L21.00 27.71 Z M21.00 24.25 L21.00 22.52 L19.50 21.65 L18.00 22.52 L18.00 24.25 L19.50 25.11 Z M19.50 21.65 L19.50 19.92 L18.00 19.05 L16.50 19.92 L16.50 21.65 L18.00 22.52 Z" fill="#00c398" stroke="#00c398" stroke-width="0.02"/>
<path d="M9.00 19.05 L10.50 19.92 M7.50 19.92 L7.50 21.65 M7.50 21.65 L9.00 22.52 M9.00 22.52 L10.50 21.65 M9.00 17.32 L9.00 19.05 M7.50 16.45 L9.00 17.32 M6.00 17.32 L6.00 19.05 M6.00 19.05 L7.50 19.92 M7.50 14.72 L7.50 16.45 M6.00 13.86 L7.50 14.72 M4.50 14.72 L6.00 13.86 M4.50 14.72 L4.50 16.45 M4.50 16.45 L6.00 17.32 M13.50 25.11 L15.00 24.25 M13.50 25.11 L13.50 26.85 M13.50 26.85 L15.00 27.71 M15.00 27.71 L16.50 26.85 M12.00 19.05 L13.50 19.92 M10.50 19.92 L12.00 19.05 M10.50 21.65 L12.00 22.52 M12.00 22.52 L13.50 21.65 M21.00 27.71 L21.00 29.44 M18.00 27.71 L18.00 29.44 M18.00 29.44 L19.50 30.31 M19.50 30.31 L21.00 29.44 M16.50 26.85 L18.00 27.71 M15.00 22.52 L15.00 24.25 M15.00 19.05 L16.50 19.92 M13.50 19.92 L15.00 19.05 M13.50 21.65 L15.00 22.52 M22.50 25.11 L22.50 26.85 M21.00 24.25 L22.50 25.11 M21.00 27.71 L22.50 26.85 M21.00 22.52 L21.00 24.25 M19.50 21.65 L21.00 22.52 M19.50 19.92 L19.50 21.65 M18.00 19.05 L19.50 19.92 M16.50 19.92 L18.00 19.05" stroke="#1f2833" stroke-width="0.09" stroke-linecap="round" fill="none"/>
<path d="M4.50 16.45 L4.50 14.72 L3.00 13.86 L1.50 14.72 L1.50 16.45 L3.00 17.32 Z M6.00 13.86 L6.00 12.12 L4.50 11.26 L3.00 12.12 L3.00 13.86 L4.50 14.72 Z M7.50 11.26 L7.50 9.53 L6.00 8.66 L4.50 9.53 L4.50 11.26 L6.00 12.12 Z M3.00 24.25 L3.00 22.52 L1.50 21.65 L0.00 22.52 L0.00 24.25 L1.50 25.11 Z M6.00 19.05 L6.00 17.32 L4.50 16.45 L3.00 17.32 L3.00 19.05 L4.50 19.92 Z M3.00 29.44 L3.00 27.71 L1.50 26.85 L0.00 27.71 L0.00 29.44 L1.50 30.31 Z M4.50 26.85 L4.50 25.11 L3.00 24.25 L1.50 25.11 L1.50 26.85 L3.00 27.71 Z M6.00 24.25 L6.00 22.52 L4.50 21.65 L3.00 22.52 L3.00 24.25 L4.50 25.11 Z M7.50 21.65 L7.50 19.92 L6.00 19.05 L4.50 19.92 L4.50 21.65 L6.00 22.52 Z M6.00 29.44 L6.00 27.71 L4.50 26.85 L3.00 27.71 L3.00 29.44 L4.50 30.31 Z M7.50 26.85 L7.50 25.11 L6.00 24.25 L4.50 25.11 L4.50 26.85 L6.00 27.71 Z M9.00 24.25 L9.00 22.52 L7.50 21.65 L6.00 22.52 L6.00 24.25 L7.50 25.11 Z" fill="#007dad" stroke="#007dad" stroke-width="0.02"/>
<path d="M4.50 14.72 L4.50 16.45 M1.50 14.72 L3.00 13.86 M1.50 14.72 L1.50 16.45 M1.50 16.45 L3.00 17.32 M6.00 12.12 L6.00 13.86 M3.00 12.12 L4.50 11.26 M3.00 12.12 L3.00 13.86 M4.50 14.72 L6.00 13.86 M7.50 9.53 L7.50 11.26 M6.00 8.66 L7.50 9.53 M4.50 9.53 L6.00 8.66 M4.50 9.53 L4.50 11.26 M6.00 12.12 L7.50 11.26 M1.50 21.65 L3.00 22.52 M0.00 22.52 L1.50 21.65 M0.00 22.52 L0.00 24.25 M0.00 24.25 L1.50 25.11 M6.00 17.32 L6.00 19.05 M4.50 16.45 L6.00 17.32 M3.00 17.32 L3.00 19.05 M3.00 19.05 L4.50 19.92 M0.00 27.71 L1.50 26.85 M0.00 27.71 L0.00 29.44 M0.00 29.44 L1.50 30.31 M1.50 30.31 L3.00 29.44 M1.50 25.11 L1.50 26.85 M3.00 22.52 L4.50 21.65 M7.50 19.92 L7.50 21.65 M6.00 19.05 L7.50 19.92 M4.50 19.92 L4.50 21.65 M6.00 27.71 L6.00 29.44 M3.00 29.44 L4.50 30.31 M4.50 30.31 L6.00 29.44 M7.50 25.11 L7.50 26.85 M6.00 27.71 L7.50 26.85 M9.00 22.52 L9.00 24.25 M7.50 21.65 L9.00 22.52 M7.50 25.11 L9.00 24.25" stroke="#1f2833" stroke-width="0.09" stroke-linecap="round" fill="none"/>
<path d="M18.00 19.05 L18.00 17.32 L16.50 16.45 L15.00 17.32 L15.00 19.05 L16.50 19.92 Z M15.00 19.05 L15.00 17.32 L13.50 16.45 L12.00 17.32 L12.00 19.05 L13.50 19.92 Z M12.00 19.05 L12.00 17.32 L10.50 16.45 L9.00 17.32 L9.00 19.05 L10.50 19.92 Z M25.50 16.45 L25.50 14.72 L24.00 13.86 L22.50 14.72 L22.50 16.45 L24.00 17.32 Z M19.50 16.45 L19.50 14.72 L18.00 13.86 L16.50 14.72 L16.50 16.45 L18.00 17.32 Z M30.00 13.86 L30.00 12.12 L28.50 11.26 L27.00 12.12 L27.00 13.86 L28.50 14.72 Z M27.00 13.86 L27.00 12.12 L25.50 11.26 L24.00 12.12 L24.00 13.86 L25.50 14.72 Z M24.00 13.86 L24.00 12.12 L22.50 11.26 L21.00 12.12 L21.00 13.86 L22.50 14.72 Z M21.00 13.86 L21.00 12.12 L19.50 11.26 L18.00 12.12 L18.00 13.86 L19.50 14.72 Z M28.50 11.26 L28.50 9.53 L27.00 8.66 L25.50 9.53 L25.50 11.26 L27.00 12.12 Z M25.50 11.26 L25.50 9.53 L24.00 8.66 L22.50 9.53 L22.50 11.26 L24.00 12.12 Z M22.50 11.26 L22.50 9.53 L21.00 8.66 L19.50 9.53 L19.50 11.26 L21.00 12.12 Z" fill="#20aaff" stroke="#20aaff" stroke-width="0.02"/>
<path d="M18.00 17.32 L18.00 19.05 M15.00 17.32 L16.50 16.45 M15.00 19.05 L16.50 19.92 M16.50 19.92 L18.00 19.05 M13.50 16.45 L15.00 17.32 M12.00 17.32 L13.50 16.45 M12.00 19.05 L13.50 19.92 M13.50 19.92 L15.00 19.05 M10.50 16.45 L12.00 17.32 M9.00 17.32 L10.50 16.45 M9.00 17.32 L9.00 19.05 M9.00 19.05 L10.50 19.92 M10.50 19.92 L12.00 19.05 M25.50 14.72 L25.50 16.45 M22.50 14.72 L22.50 16.45 M22.50 16.45 L24.00 17.32 M24.00 17.32 L25.50 16.45 M19.50 14.72 L19.50 16.45 M16.50 14.72 L18.00 13.86 M16.50 14.72 L16.50 16.45 M18.00 17.32 L19.50 16.45 M30.00 12.12 L30.00 13.86 M28.50 11.26 L30.00 12.12 M27.00 13.86 L28.50 14.72 M28.50 14.72 L30.00 13.86 M25.50 14.72 L27.00 13.86 M21.00 13.86 L22.50 14.72 M18.00 12.12 L19.50 11.26 M18.00 12.12 L18.00 13.86 M19.50 14.72 L21.00 13.86 M28.50 9.53 L28.50 11.26 M27.00 8.66 L28.50 9.53 M25.50 9.53 L27.00 8.66 M24.00 8.66 L25.50 9.53 M22.50 9.53 L24.00 8.66 M21.00 8.66 L22.50 9.53 M19.50 9.53 L21.00 8.66 M19.50 9.53 L19.50 11.26" stroke="#1f2833" stroke-width="0.09" stroke-linecap="round" fill="none"/>
<path d="M25.50 26.85 L25.50 25.11 L24.00 24.25 L22.50 25.11 L22.50 26.85 L24.00 27.71 Z M28.50 26.85 L28.50 25.11 L27.00 24.25 L25.50 25.11 L25.50 26.85 L27.00 27.71 Z M31.50 26.85 L31.50 25.11 L30.00 24.25 L28.50 25.11 L28.50 26.85 L30.00 27.71 Z M18.00 29.44 L18.00 27.71 L16.50 26.85 L15.00 27.71 L15.00 29.44 L16.50 30.31 Z M24.00 29.44 L24.00 27.71 L22.50 26.85 L21.00 27.71 L21.00 29.44 L22.50 30.31 Z M13.50 32.04 L13.50 30.31 L12.00 29.44 L10.50 30.31 L10.50 32.04 L12.00 32.91 Z M16.50 32.04 L16.50 30.31 L15.00 29.44 L13.50 30.31 L13.50 32.04 L15.00 32.91 Z M19.50 32.04 L19.50 30.31 L18.00 29.44 L16.50 30.31 L16.50 32.04 L18.00 32.91 Z M22.50 32.04 L22.50 30.31 L21.00 29.44 L19.50 30.31 L19.50 32.04 L21.00 32.91 Z M15.00 34.64 L15.00 32.91 L13.50 32.04 L12.00 32.91 L12.00 34.64 L13.50 35.51 Z M18.00 34.64 L18.00 32.91 L16.50 32.04 L15.00 32.91 L15.00 34.64 L16.50 35.51 Z M21.00 34.64 L21.00 32.91 L19.50 32.04 L18.00 32.91 L18.00 34.64 L19.50 35.51 Z" fill="#20aaff" stroke="#20aaff" stroke-width="0.02"/>
<path d="M24.00 24.25 L25.50 25.11 M22.50 25.11 L24.00 24.25 M22.50 25.11 L22.50 26.85 M24.00 27.71 L25.50 26.85 M27.00 24.25 L28.50 25.11 M25.50 25.11 L27.00 24.25 M25.50 26.85 L27.00 27.71 M27.00 27.71 L28.50 26.85 M31.50 25.11 L31.50 26.85 M30.00 24.25 L31.50 25.11 M28.50 25.11 L30.00 24.25 M28.50 26.85 L30.00 27.71 M30.00 27.71 L31.50 26.85 M18.00 27.71 L18.00 29.44 M16.50 26.85 L18.00 27.71 M15.00 27.71 L16.50 26.85 M15.00 27.71 L15.00 29.44 M24.00 27.71 L24.00 29.44 M21.00 27.71 L22.50 26.85 M21.00 27.71 L21.00 29.44 M22.50 30.31 L24.00 29.44 M12.00 29.44 L13.50 30.31 M10.50 30.31 L12.00 29.44 M10.50 30.31 L10.50 32.04 M10.50 32.04 L12.00 32.91 M13.50 30.31 L15.00 29.44 M18.00 29.44 L19.50 30.31 M22.50 30.31 L22.50 32.04 M19.50 30.31 L21.00 29.44 M21.00 32.91 L22.50 32.04 M12.00 32.91 L12.00 34.64 M12.00 34.64 L13.50 35.51 M13.50 35.51 L15.00 34.64 M15.00 34.64 L16.50 35.51 M16.50 35.51 L18.00 34.64 M21.00 32.91 L21.00 34.64 M18.00 34.64 L19.50 35.51 M19.50 35.51 L21.00 34.64" stroke="#1f2833" stroke-width="0.09" stroke-linecap="round" fill="none"/>
<path d="M25.50 -25.11 L25.50 -26.85 L24.00 -27.71 L22.50 -26.85 L22.50 -25.11 L24.00 -24.25 Z M24.00 -22.52 L24.00 -24.25 L22.50 -25.11 L21.00 -24.25 L21.00 -22.52 L22.50 -21.65 Z M22.50 -19.92 L22.50 -21.65 L21.00 -22.52 L19.50 -21.65 L19.50 -19.92 L21.00 -19.05 Z M27.00 -32.91 L27.00 -34.64 L25.50 -35.51 L24.00 -34.64 L24.00 -32.91 L25.50 -32.04 Z M24.00 -27.71 L24.00 -29.44 L22.50 -30.31 L21.00 -29.44 L21.00 -27.71 L22.50 -26.85 Z M27.00 -38.11 L27.00 -39.84 L25.50 -40.70 L24.00 -39.84 L24.00 -38.11 L25.50 -37.24 Z M25.50 -35.51 L25.50 -37.24 L24.00 -38.11 L22.50 -37.24 L22.50 -35.51 L24.00 -34.64 Z M24.00 -32.91 L24.00 -34.64 L22.50 -35.51 L21.00 -34.64 L21.00 -32.91 L22.50 -32.04 Z M22.50 -30.31 L22.50 -32.04 L21.00 -32.91 L19.50 -32.04 L19.50 -30.31 L21.00 -29.44 Z M24.00 -38.11 L24.00 -39.84 L22.50 -40.70 L21.00 -39.84 L21.00 -38.11 L22.50 -37.24 Z M22.50 -35.51 L22.50 -37.24 L21.00 -38.11 L19.50 -37.24 L19.50 -35.51 L21.00 -34.64 Z M21.00 -32.91 L21.00 -34.64 L19.50 -35.51 L18.00 -34.64 L18.00 -32.91 L19.50 -32.04 Z" fill="#007dad" stroke="#007dad" stroke-width="0.02"/>
<path d="M25.50 -26.85 L25.50 -25.11 M24.00 -27.71 L25.50 -26.85 M22.50 -26.85 L22.50 -25.11 M24.00 -24.25 L25.50 -25.11 M24.00 -24.25 L24.00 -22.52 M21.00 -24.25 L22.50 -25.11 M21.00 -24.25 L21.00 -22.52 M22.50 -21.65 L24.00 -22.52 M22.50 -21.65 L22.50 -19.92 M19.50 -21.65 L21.00 -22.52 M19.50 -21.65 L19.50 -19.92 M19.50 -19.92 L21.00 -19.05 M21.00 -19.05 L22.50 -19.92 M27.00 -34.64 L27.00 -32.91 M25.50 -35.51 L27.00 -34.64 M24.00 -32.91 L25.50 -32.04 M25.50 -32.04 L27.00 -32.91 M24.00 -29.44 L24.00 -27.71 M22.50 -30.31 L24.00 -29.44 M21.00 -29.44 L21.00 -27.71 M21.00 -27.71 L22.50 -26.85 M27.00 -39.84 L27.00 -38.11 M25.50 -40.70 L27.00 -39.84 M24.00 -39.84 L25.50 -40.70 M25.50 -37.24 L27.00 -38.11 M25.50 -37.24 L25.50 -35.51 M22.50 -32.04 L24.00 -32.91 M22.50 -32.04 L22.50 -30.31 M19.50 -32.04 L19.50 -30.31 M19.50 -30.31 L21.00 -29.44 M22.50 -40.70 L24.00 -39.84 M21.00 -39.84 L22.50 -40.70 M21.00 -39.84 L21.00 -38.11 M19.50 -37.24 L21.00 -38.11 M19.50 -37.24 L19.50 -35.51 M18.00 -34.64 L19.50 -35.51 M18.00 -34.64 L18.00 -32.91 M18.00 -32.91 L19.50 -32.04" stroke="#1f2833" stroke-width="0.09" stroke-linecap="round" fill="none"/>
<path d="M12.00 -27.71 L12.00 -29.44 L10.50 -30.31 L9.00 -29.44 L9.00 -27.71 L10.50 -26.85 Z M15.00 -27.71 L15.00 -29.44 L13.50 -30.31 L12.00 -29.44 L12.00 -27.71 L13.50 -26.85 Z M18.00 -27.71 L18.00 -29.44 L16.50 -30.31 L15.00 -29.44 L15.00 -27.71 L16.50 -26.85 Z M4.50 -25.11 L4.50 -26.85 L3.00 -27.71 L1.50 -26.85 L1.50 -25.11 L3.00 -24.25 Z M10.50 -25.11 L10.50 -26.85 L9.00 -27.71 L7.50 -26.85 L7.50 -25.11 L9.00 -24.25 Z M0.00 -22.52 L0.00 -24.25 L-1.50 -25.11 L-3.00 -24.25 L-3.00 -22.52 L-1.50 -21.65 Z M3.00 -22.52 L3.00 -24.25 L1.50 -25.11 L0.00 -24.25 L0.00 -22.52 L1.50 -21.65 Z M6.00 -22.52 L6.00 -24.25 L4.50 -25.11 L3.00 -24.25 L3.00 -22.52 L4.50 -21.65 Z M9.00 -22.52 L9.00 -24.25 L7.50 -25.11 L6.00 -24.25 L6.00 -22.52 L7.50 -21.65 Z M1.50 -19.92 L1.50 -21.65 L0.00 -22.52 L-1.50 -21.65 L-1.50 -19.92 L0.00 -19.05 Z M4.50 -19.92 L4.50 -21.65 L3.00 -22.52 L1.50 -21.65 L1.50 -19.92 L3.00 -19.05 Z M7.50 -19.92 L7.50 -21.65 L6.00 -22.52 L4.50 -21.65 L4.50 -19.92 L6.00 -19.05 Z" fill="#20aaff" stroke="#20aaff" stroke-width="0.02"/>
<path d="M10.50 -30.31 L12.00 -29.44 M9.00 -29.44 L10.50 -30.31 M9.00 -29.44 L9.00 -27.71 M10.50 -26.85 L12.00 -27.71 M13.50 -30.31 L15.00 -29.44 M12.00 -29.44 L13.50 -30.31 M12.00 -27.71 L13.50 -26.85 M13.50 -26.85 L15.00 -27.71 M18.00 -29.44 L18.00 -27.71 M16.50 -30.31 L18.00 -29.44 M15.00 -29.44 L16.50 -30.31 M15.00 -27.71 L16.50 -26.85 M16.50 -26.85 L18.00 -27.71 M4.50 -26.85 L4.50 -25.11 M3.00 -27.71 L4.50 -26.85 M1.50 -26.85 L3.00 -27.71 M1.50 -26.85 L1.50 -25.11 M10.50 -26.85 L10.50 -25.11 M7.50 -26.85 L9.00 -27.71 M7.50 -26.85 L7.50 -25.11 M9.00 -24.25 L10.50 -25.11 M-1.50 -25.11 L0.00 -24.25 M-3.00 -24.25 L-1.50 -25.11 M-3.00 -24.25 L-3.00 -22.52 M-3.00 -22.52 L-1.50 -21.65 M0.00 -24.25 L1.50 -25.11 M4.50 -25.11 L6.00 -24.25 M9.00 -24.25 L9.00 -22.52 M6.00 -24.25 L7.50 -25.11 M7.50 -21.65 L9.00 -22.52 M-1.50 -21.65 L-1.50 -19.92 M-1.50 -19.92 L0.00 -19.05 M0.00 -19.05 L1.50 -19.92 M1.50 -19.92 L3.00 -19.05 M3.00 -19.05 L4.50 -19.92 M7.50 -21.65 L7.50 -19.92 M4.50 -19.92 L6.00 -19.05 M6.00 -19.05 L7.50 -19.92" stroke="#1f2833" stroke-width="0.09" stroke-linecap="round" fill="none"/>
<path d="M9.00 -17.32 L9.00 -19.05 L7.50 -19.92 L6.00 -19.05 L6.00 -17.32 L7.50 -16.45 Z M6.00 -17.32 L6.00 -19.05 L4.50 -19.92 L3.00 -19.05 L3.00 -17.32 L4.50 -16.45 Z M3.00 -17.32 L3.00 -19.05 L1.50 -19.92 L0.00 -19.05 L0.00 -17.32 L1.50 -16.45 Z M16.50 -19.92 L16.50 -21.65 L15.00 -22.52 L13.50 -21.65 L13.50 -19.92 L15.00 -19.05 Z M10.50 -19.92 L10.50 -21.65 L9.00 -22.52 L7.50 -21.65 L7.50 -19.92 L9.00 -19.05 Z M21.00 -22.52 L21.00 -24.25 L19.50 -25.11 L18.00 -24.25 L18.00 -22.52 L19.50 -21.65 Z M18.00 -22.52 L18.00 -24.25 L16.50 -25.11 L15.00 -24.25 L15.00 -22.52 L16.50 -21.65 Z M15.00 -22.52 L15.00 -24.25 L13.50 -25.11 L12.00 -24.25 L12.00 -22.52 L13.50 -21.65 Z M12.00 -22.52 L12.00 -24.25 L10.50 -25.11 L9.00 -24.25 L9.00 -22.52 L10.50 -21.65 Z M19.50 -25.11 L19.50 -26.85 L18.00 -27.71 L16.50 -26.85 L16.50 -25.11 L18.00 -24.25 Z M16.50 -25.11 L16.50 -26.85 L15.00 -27.71 L13.50 -26.85 L13.50 -25.11 L15.00 -24.25 Z M13.50 -25.11 L13.50 -26.85 L12.00 -27.71 L10.50 -26.85 L10.50 -25.11 L12.00 -24.25 Z" fill="#785ace" stroke="#785ace" stroke-width="0.02"/>
<path d="M9.00 -19.05 L9.00 -17.32 M6.00 -19.05 L7.50 -19.92 M6.00 -17.32 L7.50 -16.45 M7.50 -16.45 L9.00 -17.32 M4.50 -19.92 L6.00 -19.05 M3.00 -19.05 L4.50 -19.92 M3.00 -17.32 L4.50 -16.45 M4.50 -16.45 L6.00 -17.32 M1.50 -19.92 L3.00 -19.05 M0.00 -19.05 L1.50 -19.92 M0.00 -19.05 L0.00 -17.32 M0.00 -17.32 L1.50 -16.45 M1.50 -16.45 L3.00 -17.32 M16.50 -21.65 L16.50 -19.92 M13.50 -21.65 L13.50 -19.92 M13.50 -19.92 L15.00 -19.05 M15.00 -19.05 L16.50 -19.92 M10.50 -21.65 L10.50 -19.92 M7.50 -21.65 L9.00 -22.52 M7.50 -21.65 L7.50 -19.92 M9.00 -19.05 L10.50 -19.92 M21.00 -24.25 L21.00 -22.52 M19.50 -25.11 L21.00 -24.25 M18.00 -22.52 L19.50 -21.65 M19.50 -21.65 L21.00 -22.52 M16.50 -21.65 L18.00 -22.52 M12.00 -22.52 L13.50 -21.65 M9.00 -24.25 L10.50 -25.11 M9.00 -24.25 L9.00 -22.52 M10.50 -21.65 L12.00 -22.52 M19.50 -26.85 L19.50 -25.11 M18.00 -27.71 L19.50 -26.85 M16.50 -26.85 L18.00 -27.71 M15.00 -27.71 L16.50 -26.85 M13.50 -26.85 L15.00 -27.71 M12.00 -27.71 L13.50 -26.85 M10.50 -26.85 L12.00 -27.71 M10.50 -26.85 L10.50 -25.11" stroke="#1f2833" stroke-width="0.09" stroke-linecap="round" fill="none"/>
<path d="M27.00 -22.52 L27.00 -24.25 L25.50 -25.11 L24.00 -24.25 L24.00 -22.52 L25.50 -21.65 Z M30.00 -22.52 L30.00 -24.25 L28.50 -25.11 L27.00 -24.25 L27.00 -22.52 L28.50 -21.65 Z M33.00 -22.52 L33.00 -24.25 L31.50 -25.11 L30.00 -24.25 L30.00 -22.52 L31.50 -21.65 Z M19.50 -19.92 L19.50 -21.65 L18.00 -22.52 L16.50 -21.65 L16.50 -19.92 L18.00 -19.05 Z M25.50 -19.92 L25.50 -21.65 L24.00 -22.52 L22.50 -21.65 L22.50 -19.92 L24.00 -19.05 Z M15.00 -17.32 L15.00 -19.05 L13.50 -19.92 L12.00 -19.05 L12.00 -17.32 L13.50 -16.45 Z M18.00 -17.32 L18.00 -19.05 L16.50 -19.92 L15.00 -19.05 L15.00 -17.32 L16.50 -16.45 Z M21.00 -17.32 L21.00 -19.05 L19.50 -19.92 L18.00 -19.05 L18.00 -17.32 L19.50 -16.45 Z M24.00 -17.32 L24.00 -19.05 L22.50 -19.92 L21.00 -19.05 L21.00 -17.32 L22.50 -16.45 Z M16.50 -14.72 L16.50 -16.45 L15.00 -17.32 L13.50 -16.45 L13.50 -14.72 L15.00 -13.86 Z M19.50 -14.72 L19.50 -16.45 L18.00 -17.32 L16.50 -16.45 L16.50 -14.72 L18.00 -13.86 Z M22.50 -14.72 L22.50 -16.45 L21.00 -17.32 L19.50 -16.45 L19.50 -14.72 L21.00 -13.86 Z" fill="#785ace" stroke="#785ace" stroke-width="0.02"/>
<path d="M25.50 -25.11 L27.00 -24.25 M24.00 -24.25 L25.50 -25.11 M24.00 -24.25 L24.00 -22.52 M25.50 -21.65 L27.00 -22.52 M28.50 -25.11 L30.00 -24.25 M27.00 -24.25 L28.50 -25.11 M27.00 -22.52 L28.50 -21.65 M28.50 -21.65 L30.00 -22.52 M33.00 -24.25 L33.00 -22.52 M31.50 -25.11 L33.00 -24.25 M30.00 -24.25 L31.50 -25.11 M30.00 -22.52 L31.50 -21.65 M31.50 -21.65 L33.00 -22.52 M19.50 -21.65 L19.50 -19.92 M18.00 -22.52 L19.50 -21.65 M16.50 -21.65 L18.00 -22.52 M16.50 -21.65 L16.50 -19.92 M25.50 -21.65 L25.50 -19.92 M22.50 -21.65 L24.00 -22.52 M22.50 -21.65 L22.50 -19.92 M24.00 -19.05 L25.50 -19.92 M13.50 -19.92 L15.00 -19.05 M12.00 -19.05 L13.50 -19.92 M12.00 -19.05 L12.00 -17.32 M12.00 -17.32 L13.50 -16.45 M15.00 -19.05 L16.50 -19.92 M19.50 -19.92 L21.00 -19.05 M24.00 -19.05 L24.00 -17.32 M21.00 -19.05 L22.50 -19.92 M22.50 -16.45 L24.00 -17.32 M13.50 -16.45 L13.50 -14.72 M13.50 -14.72 L15.00 -13.86 M15.00 -13.86 L16.50 -14.72 M16.50 -14.72 L18.00 -13.86 M18.00 -13.86 L19.50 -14.72 M22.50 -16.45 L22.50 -14.72 M19.50 -14.72 L21.00 -13.86 M21.00 -13.86 L22.50 -14.72" stroke="#1f2833" stroke-width="0.09" stroke-linecap="round" fill="none"/>
<path d="M39.00 -6.93 L39.00 -8.66 L37.50 -9.53 L36.00 -8.66 L36.00 -6.93 L37.50 -6.06 Z M40.50 -4.33 L40.50 -6.06 L39.00 -6.93 L37.50 -6.06 L37.50 -4.33 L39.00 -3.46 Z M42.00 -1.73 L42.00 -3.46 L40.50 -4.33 L39.00 -3.46 L39.00 -1.73 L40.50 -0.87 Z M33.00 -12.12 L33.00 -13.86 L31.50 -14.72 L30.00 -13.86 L30.00 -12.12 L31.50 -11.26 Z M36.00 -6.93 L36.00 -8.66 L34.50 -9.53 L33.00 -8.66 L33.00 -6.93 L34.50 -6.06 Z M28.50 -14.72 L28.50 -16.45 L27.00 -17.32 L25.50 -16.45 L25.50 -14.72 L27.00 -13.86 Z M30.00 -12.12 L30.00 -13.86 L28.50 -14.72 L27.00 -13.86 L27.00 -12.12 L28.50 -11.26 Z M31.50 -9.53 L31.50 -11.26 L30.00 -12.12 L28.50 -11.26 L28.50 -9.53 L30.00 -8.66 Z M33.00 -6.93 L33.00 -8.66 L31.50 -9.53 L30.00 -8.66 L30.00 -6.93 L31.50 -6.06 Z M27.00 -12.12 L27.00 -13.86 L25.50 -14.72 L24.00 -13.86 L24.00 -12.12 L25.50 -11.26 Z M28.50 -9.53 L28.50 -11.26 L27.00 -12.12 L25.50 -11.26 L25.50 -9.53 L27.00 -8.66 Z M30.00 -6.93 L30.00 -8.66 L28.50 -9.53 L27.00 -8.66 L27.00 -6.93 L28.50 -6.06 Z" fill="#00c398" stroke="#00c398" stroke-width="0.02"/>
<path d="M39.00 -8.66 L39.00 -6.93 M37.50 -9.53 L39.00 -8.66 M36.00 -8.66 L37.50 -9.53 M36.00 -6.93 L37.50 -6.06 M40.50 -6.06 L40.50 -4.33 M39.00 -6.93 L40.50 -6.06 M37.50 -6.06 L37.50 -4.33 M37.50 -4.33 L39.00 -3.46 M42.00 -3.46 L42.00 -1.73 M40.50 -4.33 L42.00 -3.46 M39.00 -3.46 L39.00 -1.73 M39.00 -1.73 L40.50 -0.87 M40.50 -0.87 L42.00 -1.73 M33.00 -13.86 L33.00 -12.12 M31.50 -14.72 L33.00 -13.86 M30.00 -13.86 L31.50 -14.72 M31.50 -11.26 L33.00 -12.12 M34.50 -9.53 L36.00 -8.66 M33.00 -8.66 L34.50 -9.53 M33.00 -6.93 L34.50 -6.06 M34.50 -6.06 L36.00 -6.93 M28.50 -16.45 L28.50 -14.72 M27.00 -17.32 L28.50 -16.45 M25.50 -16.45 L27.00 -17.32 M25.50 -16.45 L25.50 -14.72 M28.50 -14.72 L30.00 -13.86 M31.50 -11.26 L31.50 -9.53 M31.50 -9.53 L33.00 -8.66 M30.00 -6.93 L31.50 -6.06 M31.50 -6.06 L33.00 -6.93 M24.00 -13.86 L25.50 -14.72 M24.00 -13.86 L24.00 -12.12 M24.00 -12.12 L25.50 -11.26 M25.50 -11.26 L25.50 -9.53 M25.50 -9.53 L27.00 -8.66 M27.00 -8.66 L27.00 -6.93 M27.00 -6.93 L28.50 -6.06 M28.50 -6.06 L30.00 -6.93" stroke="#1f2833" stroke-width="0.09" stroke-linecap="round" fill="none"/>
<path d="M16.50 -9.53 L16.50 -11.26 L15.00 -12.12 L13.50 -11.26 L13.50 -9.53 L15.00 -8.66 Z M15.00 -12.12 L15.00 -13.86 L13.50 -14.72 L12.00 -13.86 L12.00 -12.12 L13.50 -11.26 Z M13.50 -14.72 L13.50 -16.45 L12.00 -17.32 L10.50 -16.45 L10.50 -14.72 L12.00 -13.86 Z M22.50 -4.33 L22.50 -6.06 L21.00 -6.93 L19.50 -6.06 L19.50 -4.33 L21.00 -3.46 Z M19.50 -9.53 L19.50 -11.26 L18.00 -12.12 L16.50 -11.26 L16.50 -9.53 L18.00 -8.66 Z M27.00 -1.73 L27.00 -3.46 L25.50 -4.33 L24.00 -3.46 L24.00 -1.73 L25.50 -0.87 Z M25.50 -4.33 L25.50 -6.06 L24.00 -6.93 L22.50 -6.06 L22.50 -4.33 L24.00 -3.46 Z M24.00 -6.93 L24.00 -8.66 L22.50 -9.53 L21.00 -8.66 L21.00 -6.93 L22.50 -6.06 Z M22.50 -9.53 L22.50 -11.26 L21.00 -12.12 L19.50 -11.26 L19.50 -9.53 L21.00 -8.66 Z M28.50 -4.33 L28.50 -6.06 L27.00 -6.93 L25.50 -6.06 L25.50 -4.33 L27.00 -3.46 Z M27.00 -6.93 L27.00 -8.66 L25.50 -9.53 L24.00 -8.66 L24.00 -6.93 L25.50 -6.06 Z M25.50 -9.53 L25.50 -11.26 L24.00 -12.12 L22.50 -11.26 L22.50 -9.53 L24.00 -8.66 Z" fill="#00c398" stroke="#00c398" stroke-width="0.02"/>
<path d="M15.00 -12.12 L16.50 -11.26 M13.50 -11.26 L13.50 -9.53 M13.50 -9.53 L15.00 -8.66 M15.00 -8.66 L16.50 -9.53 M15.00 -13.86 L15.00 -12.12 M13.50 -14.72 L15.00 -13.86 M12.00 -13.86 L12.00 -12.12 M12.00 -12.12 L13.50 -11.26 M13.50 -16.45 L13.50 -14.72 M12.00 -17.32 L13.50 -16.45 M10.50 -16.45 L12.00 -17.32 M10.50 -16.45 L10.50 -14.72 M10.50 -14.72 L12.00 -13.86 M19.50 -6.06 L21.00 -6.93 M19.50 -6.06 L19.50 -4.33 M19.50 -4.33 L21.00 -3.46 M21.00 -3.46 L22.50 -4.33 M18.00 -12.12 L19.50 -11.26 M16.50 -11.26 L18.00 -12.12 M16.50 -9.53 L18.00 -8.66 M18.00 -8.66 L19.50 -9.53 M27.00 -3.46 L27.00 -1.73 M24.00 -3.46 L24.00 -1.73 M24.00 -1.73 L25.50 -0.87 M25.50 -0.87 L27.00 -1.73 M22.50 -4.33 L24.00 -3.46 M21.00 -8.66 L21.00 -6.93 M21.00 -12.12 L22.50 -11.26 M19.50 -11.26 L21.00 -12.12 M19.50 -9.53 L21.00 -8.66 M28.50 -6.06 L28.50 -4.33 M27.00 -6.93 L28.50 -6.06 M27.00 -3.46 L28.50 -4.33 M27.00 -8.66 L27.00 -6.93 M25.50 -9.53 L27.00 -8.66 M25.50 -11.26 L25.50 -9.53 M24.00 -12.12 L25.50 -11.26 M22.50 -11.26 L24.00 -12.12" stroke="#1f2833" stroke-width="0.09" stroke-linecap="round" fill="none"/>
<path d="M10.50 -14.72 L10.50 -16.45 L9.00 -17.32 L7.50 -16.45 L7.50 -14.72 L9.00 -13.86 Z M12.00 -17.32 L12.00 -19.05 L10.50 -19.92 L9.00 -19.05 L9.00 -17.32 L10.50 -16.45 Z M13.50 -19.92 L13.50 -21.65 L12.00 -22.52 L10.50 -21.65 L10.50 -19.92 L12.00 -19.05 Z M9.00 -6.93 L9.00 -8.66 L7.50 -9.53 L6.00 -8.66 L6.00 -6.93 L7.50 -6.06 Z M12.00 -12.12 L12.00 -13.86 L10.50 -14.72 L9.00 -13.86 L9.00 -12.12 L10.50 -11.26 Z M9.00 -1.73 L9.00 -3.46 L7.50 -4.33 L6.00 -3.46 L6.00 -1.73 L7.50 -0.87 Z M10.50 -4.33 L10.50 -6.06 L9.00 -6.93 L7.50 -6.06 L7.50 -4.33 L9.00 -3.46 Z M12.00 -6.93 L12.00 -8.66 L10.50 -9.53 L9.00 -8.66 L9.00 -6.93 L10.50 -6.06 Z M13.50 -9.53 L13.50 -11.26 L12.00 -12.12 L10.50 -11.26 L10.50 -9.53 L12.00 -8.66 Z M12.00 -1.73 L12.00 -3.46 L10.50 -4.33 L9.00 -3.46 L9.00 -1.73 L10.50 -0.87 Z M13.50 -4.33 L13.50 -6.06 L12.00 -6.93 L10.50 -6.06 L10.50 -4.33 L12.00 -3.46 Z M15.00 -6.93 L15.00 -8.66 L13.50 -9.53 L12.00 -8.66 L12.00 -6.93 L13.50 -6.06 Z" fill="#007dad" stroke="#007dad" stroke-width="0.02"/>
<path d="M10.50 -16.45 L10.50 -14.72 M7.50 -16.45 L9.00 -17.32 M7.50 -16.45 L7.50 -14.72 M7.50 -14.72 L9.00 -13.86 M12.00 -19.05 L12.00 -17.32 M9.00 -19.05 L10.50 -19.92 M9.00 -19.05 L9.00 -17.32 M10.50 -16.45 L12.00 -17.32 M13.50 -21.65 L13.50 -19.92 M12.00 -22.52 L13.50 -21.65 M10.50 -21.65 L12.00 -22.52 M10.50 -21.65 L10.50 -19.92 M12.00 -19.05 L13.50 -19.92 M7.50 -9.53 L9.00 -8.66 M6.00 -8.66 L7.50 -9.53 M6.00 -8.66 L6.00 -6.93 M6.00 -6.93 L7.50 -6.06 M12.00 -13.86 L12.00 -12.12 M10.50 -14.72 L12.00 -13.86 M9.00 -13.86 L9.00 -12.12 M9.00 -12.12 L10.50 -11.26 M6.00 -3.46 L7.50 -4.33 M6.00 -3.46 L6.00 -1.73 M6.00 -1.73 L7.50 -0.87 M7.50 -0.87 L9.00 -1.73 M7.50 -6.06 L7.50 -4.33 M9.00 -8.66 L10.50 -9.53 M13.50 -11.26 L13.50 -9.53 M12.00 -12.12 L13.50 -11.26 M10.50 -11.26 L10.50 -9.53 M12.00 -3.46 L12.00 -1.73 M9.00 -1.73 L10.50 -0.87 M10.50 -0.87 L12.00 -1.73 M13.50 -6.06 L13.50 -4.33 M12.00 -3.46 L13.50 -4.33 M15.00 -8.66 L15.00 -6.93 M13.50 -9.53 L15.00 -8.66 M13.50 -6.06 L15.00 -6.93" stroke="#1f2833" stroke-width="0.09" stroke-linecap="round" fill="none"/>
<path d="M24.00 -12.12 L24.00 -13.86 L22.50 -14.72 L21.00 -13.86 L21.00 -12.12 L22.50 -11.26 Z M21.00 -12.12 L21.00 -13.86 L19.50 -14.72 L18.00 -13.86 L18.00 -12.12 L19.50 -11.26 Z M18.00 -12.12 L18.00 -13.86 L16.50 -14.72 L15.00 -13.86 L15.00 -12.12 L16.50 -11.26 Z M31.50 -14.72 L31.50 -16.45 L30.00 -17.32 L28.50 -16.45 L28.50 -14.72 L30.00 -13.86 Z M25.50 -14.72 L25.50 -16.45 L24.00 -17.32 L22.50 -16.45 L22.50 -14.72 L24.00 -13.86 Z M36.00 -17.32 L36.00 -19.05 L34.50 -19.92 L33.00 -19.05 L33.00 -17.32 L34.50 -16.45 Z M33.00 -17.32 L33.00 -19.05 L31.50 -19.92 L30.00 -19.05 L30.00 -17.32 L31.50 -16.45 Z M30.00 -17.32 L30.00 -19.05 L28.50 -19.92 L27.00 -19.05 L27.00 -17.32 L28.50 -16.45 Z M27.00 -17.32 L27.00 -19.05 L25.50 -19.92 L24.00 -19.05 L24.00 -17.32 L25.50 -16.45 Z M34.50 -19.92 L34.50 -21.65 L33.00 -22.52 L31.50 -21.65 L31.50 -19.92 L33.00 -19.05 Z M31.50 -19.92 L31.50 -21.65 L30.00 -22.52 L28.50 -21.65 L28.50 -19.92 L30.00 -19.05 Z M28.50 -19.92 L28.50 -21.65 L27.00 -22.52 L25.50 -21.65 L25.50 -19.92 L27.00 -19.05 Z" fill="#20aaff" stroke="#20aaff" stroke-width="0.02"/>
<path d="M24.00 -13.86 L24.00 -12.12 M21.00 -13.86 L22.50 -14.72 M21.00 -12.12 L22.50 -11.26 M22.50 -11.26 L24.00 -12.12 M19.50 -14.72 L21.00 -13.86 M18.00 -13.86 L19.50 -14.72 M18.00 -12.12 L19.50 -11.26 M19.50 -11.26 L21.00 -12.12 M16.50 -14.72 L18.00 -13.86 M15.00 -13.86 L16.50 -14.72 M15.00 -13.86 L15.00 -12.12 M15.00 -12.12 L16.50 -11.26 M16.50 -11.26 L18.00 -12.12 M31.50 -16.45 L31.50 -14.72 M28.50 -16.45 L28.50 -14.72 M28.50 -14.72 L30.00 -13.86 M30.00 -13.86 L31.50 -14.72 M25.50 -16.45 L25.50 -14.72 M22.50 -16.45 L24.00 -17.32 M22.50 -16.45 L22.50 -14.72 M24.00 -13.86 L25.50 -14.72 M36.00 -19.05 L36.00 -17.32 M34.50 -19.92 L36.00 -19.05 M33.00 -17.32 L34.50 -16.45 M34.50 -16.45 L36.00 -17.32 M31.50 -16.45 L33.00 -17.32 M27.00 -17.32 L28.50 -16.45 M24.00 -19.05 L25.50 -19.92 M24.00 -19.05 L24.00 -17.32 M25.50 -16.45 L27.00 -17.32 M34.50 -21.65 L34.50 -19.92 M33.00 -22.52 L34.50 -21.65 M31.50 -21.65 L33.00 -22.52 M30.00 -22.52 L31.50 -21.65 M28.50 -21.65 L30.00 -22.52 M27.00 -22.52 L28.50 -21.65 M25.50 -21.65 L27.00 -22.52 M25.50 -21.65 L25.50 -19.92" stroke="#1f2833" stroke-width="0.09" stroke-linecap="round" fill="none"/>
<path d="M31.50 -4.33 L31.50 -6.06 L30.00 -6.93 L28.50 -6.06 L28.50 -4.33 L30.00 -3.46 Z M34.50 -4.33 L34.50 -6.06 L33.00 -6.93 L31.50 -6.06 L31.50 -4.33 L33.00 -3.46 Z M37.50 -4.33 L37.50 -6.06 L36.00 -6.93 L34.50 -6.06 L34.50 -4.33 L36.00 -3.46 Z M24.00 -1.73 L24.00 -3.46 L22.50 -4.33 L21.00 -3.46 L21.00 -1.73 L22.50 -0.87 Z M30.00 -1.73 L30.00 -3.46 L28.50 -4.33 L27.00 -3.46 L27.00 -1.73 L28.50 -0.87 Z M19.50 0.87 L19.50 -0.87 L18.00 -1.73 L16.50 -0.87 L16.50 0.87 L18.00 1.73 Z M22.50 0.87 L22.50 -0.87 L21.00 -1.73 L19.50 -0.87 L19.50 0.87 L21.00 1.73 Z M25.50 0.87 L25.50 -0.87 L24.00 -1.73 L22.50 -0.87 L22.50 0.87 L24.00 1.73 Z M28.50 0.87 L28.50 -0.87 L27.00 -1.73 L25.50 -0.87 L25.50 0.87 L27.00 1.73 Z M21.00 3.46 L21.00 1.73 L19.50 0.87 L18.00 1.73 L18.00 3.46 L19.50 4.33 Z M24.00 3.46 L24.00 1.73 L22.50 0.87 L21.00 1.73 L21.00 3.46 L22.50 4.33 Z M27.00 3.46 L27.00 1.73 L25.50 0.87 L24.00 1.73 L24.00 3.46 L25.50 4.33 Z" fill="#20aaff" stroke="#20aaff" stroke-width="0.02"/>
<path d="M30.00 -6.93 L31.50 -6.06 M28.50 -6.06 L30.00 -6.93 M28.50 -6.06 L28.50 -4.33 M30.00 -3.46 L31.50 -4.33 M33.00 -6.93 L34.50 -6.06 M31.50 -6.06 L33.00 -6.93 M31.50 -4.33 L33.00 -3.46 M33.00 -3.46 L34.50 -4.33 M37.50 -6.06 L37.50 -4.33 M36.00 -6.93 L37.50 -6.06 M34.50 -6.06 L36.00 -6.93 M34.50 -4.33 L36.00 -3.46 M36.00 -3.46 L37.50 -4.33 M24.00 -3.46 L24.00 -1.73 M22.50 -4.33 L24.00 -3.46 M21.00 -3.46 L22.50 -4.33 M21.00 -3.46 L21.00 -1.73 M30.00 -3.46 L30.00 -1.73 M27.00 -3.46 L28.50 -4.33 M27.00 -3.46 L27.00 -1.73 M28.50 -0.87 L30.00 -1.73 M18.00 -1.73 L19.50 -0.87 M16.50 -0.87 L18.00 -1.73 M16.50 -0.87 L16.50 0.87 M16.50 0.87 L18.00 1.73 M19.50 -0.87 L21.00 -1.73 M24.00 -1.73 L25.50 -0.87 M28.50 -0.87 L28.50 0.87 M25.50 -0.87 L27.00 -1.73 M27.00 1.73 L28.50 0.87 M18.00 1.73 L18.00 3.46 M18.00 3.46 L19.50 4.33 M19.50 4.33 L21.00 3.46 M21.00 3.46 L22.50 4.33 M22.50 4.33 L24.00 3.46 M27.00 1.73 L27.00 3.46 M24.00 3.46 L25.50 4.33 M25.50 4.33 L27.00 3.46" stroke="#1f2833" stroke-width="0.09" stroke-linecap="round" fill="none"/>
<path d="M28.50 6.06 L28.50 4.33 L27.00 3.46 L25.50 4.33 L25.50 6.06 L27.00 6.93 Z M25.50 6.06 L25.50 4.33 L24.00 3.46 L22.50 4.33 L22.50 6.06 L24.00 6.93 Z M22.50 6.06 L22.50 4.33 L21.00 3.46 L19.50 4.33 L19.50 6.06 L21.00 6.93 Z M36.00 3.46 L36.00 1.73 L34.50 0.87 L33.00 1.73 L33.00 3.46 L34.50 4.33 Z M30.00 3.46 L30.00 1.73 L28.50 0.87 L27.00 1.73 L27.00 3.46 L28.50 4.33 Z M40.50 0.87 L40.50 -0.87 L39.00 -1.73 L37.50 -0.87 L37.50 0.87 L39.00 1.73 Z M37.50 0.87 L37.50 -0.87 L36.00 -1.73 L34.50 -0.87 L34.50 0.87 L36.00 1.73 Z M34.50 0.87 L34.50 -0.87 L33.00 -1.73 L31.50 -0.87 L31.50 0.87 L33.00 1.73 Z M31.50 0.87 L31.50 -0.87 L30.00 -1.73 L28.50 -0.87 L28.50 0.87 L30.00 1.73 Z M39.00 -1.73 L39.00 -3.46 L37.50 -4.33 L36.00 -3.46 L36.00 -1.73 L37.50 -0.87 Z M36.00 -1.73 L36.00 -3.46 L34.50 -4.33 L33.00 -3.46 L33.00 -1.73 L34.50 -0.87 Z M33.00 -1.73 L33.00 -3.46 L31.50 -4.33 L30.00 -3.46 L30.00 -1.73 L31.50 -0.87 Z" fill="#785ace" stroke="#785ace" stroke-width="0.02"/>
<path d="M28.50 4.33 L28.50 6.06 M25.50 4.33 L27.00 3.46 M25.50 6.06 L27.00 6.93 M27.00 6.93 L28.50 6.06 M24.00 3.46 L25.50 4.33 M22.50 4.33 L24.00 3.46 M22.50 6.06 L24.00 6.93 M24.00 6.93 L25.50 6.06 M21.00 3.46 L22.50 4.33 M19.50 4.33 L21.00 3.46 M19.50 4.33 L19.50 6.06 M19.50 6.06 L21.00 6.93 M21.00 6.93 L22.50 6.06 M36.00 1.73 L36.00 3.46 M33.00 1.73 L33.00 3.46 M33.00 3.46 L34.50 4.33 M34.50 4.33 L36.00 3.46 M30.00 1.73 L30.00 3.46 M27.00 1.73 L28.50 0.87 M27.00 1.73 L27.00 3.46 M28.50 4.33 L30.00 3.46 M40.50 -0.87 L40.50 0.87 M39.00 -1.73 L40.50 -0.87 M37.50 0.87 L39.00 1.73 M39.00 1.73 L40.50 0.87 M36.00 1.73 L37.50 0.87 M31.50 0.87 L33.00 1.73 M28.50 -0.87 L30.00 -1.73 M28.50 -0.87 L28.50 0.87 M30.00 1.73 L31.50 0.87 M39.00 -3.46 L39.00 -1.73 M37.50 -4.33 L39.00 -3.46 M36.00 -3.46 L37.50 -4.33 M34.50 -4.33 L36.00 -3.46 M33.00 -3.46 L34.50 -4.33 M31.50 -4.33 L33.00 -3.46 M30.00 -3.46 L31.50 -4.33 M30.00 -3.46 L30.00 -1.73" stroke="#1f2833" stroke-width="0.09" stroke-linecap="round" fill="none"/>
<path d="M30.00 8.66 L30.00 6.93 L28.50 6.06 L27.00 6.93 L27.00 8.66 L28.50 9.53 Z M31.50 6.06 L31.50 4.33 L30.00 3.46 L28.50 4.33 L28.50 6.06 L30.00 6.93 Z M33.00 3.46 L33.00 1.73 L31.50 0.87 L30.00 1.73 L30.00 3.46 L31.50 4.33 Z M28.50 16.45 L28.50 14.72 L27.00 13.86 L25.50 14.72 L25.50 16.45 L27.00 17.32 Z M31.50 11.26 L31.50 9.53 L30.00 8.66 L28.50 9.53 L28.50 11.26 L30.00 12.12 Z M28.50 21.65 L28.50 19.92 L27.00 19.05 L25.50 19.92 L25.50 21.65 L27.00 22.52 Z M30.00 19.05 L30.00 17.32 L28.50 16.45 L27.00 17.32 L27.00 19.05 L28.50 19.92 Z M31.50 16.45 L31.50 14.72 L30.00 13.86 L28.50 14.72 L28.50 16.45 L30.00 17.32 Z M33.00 13.86 L33.00 12.12 L31.50 11.26 L30.00 12.12 L30.00 13.86 L31.50 14.72 Z M31.50 21.65 L31.50 19.92 L30.00 19.05 L28.50 19.92 L28.50 21.65 L30.00 22.52 Z M33.00 19.05 L33.00 17.32 L31.50 16.45 L30.00 17.32 L30.00 19.05 L31.50 19.92 Z M34.50 16.45 L34.50 14.72 L33.00 13.86 L31.50 14.72 L31.50 16.45 L33.00 17.32 Z" fill="#007dad" stroke="#007dad" stroke-width="0.02"/>
<path d="M30.00 6.93 L30.00 8.66 M27.00 6.93 L28.50 6.06 M27.00 6.93 L27.00 8.66 M27.00 8.66 L28.50 9.53 M31.50 4.33 L31.50 6.06 M28.50 4.33 L30.00 3.46 M28.50 4.33 L28.50 6.06 M30.00 6.93 L31.50 6.06 M33.00 1.73 L33.00 3.46 M31.50 0.87 L33.00 1.73 M30.00 1.73 L31.50 0.87 M30.00 1.73 L30.00 3.46 M31.50 4.33 L33.00 3.46 M27.00 13.86 L28.50 14.72 M25.50 14.72 L27.00 13.86 M25.50 14.72 L25.50 16.45 M25.50 16.45 L27.00 17.32 M31.50 9.53 L31.50 11.26 M30.00 8.66 L31.50 9.53 M28.50 9.53 L28.50 11.26 M28.50 11.26 L30.00 12.12 M25.50 19.92 L27.00 19.05 M25.50 19.92 L25.50 21.65 M25.50 21.65 L27.00 22.52 M27.00 22.52 L28.50 21.65 M27.00 17.32 L27.00 19.05 M28.50 14.72 L30.00 13.86 M33.00 12.12 L33.00 13.86 M31.50 11.26 L33.00 12.12 M30.00 12.12 L30.00 13.86 M31.50 19.92 L31.50 21.65 M28.50 21.65 L30.00 22.52 M30.00 22.52 L31.50 21.65 M33.00 17.32 L33.00 19.05 M31.50 19.92 L33.00 19.05 M34.50 14.72 L34.50 16.45 M33.00 13.86 L34.50 14.72 M33.00 17.32 L34.50 16.45" stroke="#1f2833" stroke-width="0.09" stroke-linecap="round" fill="none"/>
</svg>